<?xml version="1.0" encoding="UTF-8"?>
<svg version="1.1" xmlns="http://www.w3.org/2000/svg" width="360" height="360">
<path d="M0 0 C118.8 0 237.6 0 360 0 C360 118.8 360 237.6 360 360 C241.2 360 122.4 360 0 360 C0 241.2 0 122.4 0 0 Z " fill="#221F20" transform="translate(0,0)"/>
<path d="M0 0 C0 7.59 0 15.18 0 23 C-5.57329876 25.47702167 -11.12477723 27.9139918 -16.7734375 30.19921875 C-17.80907333 30.61999443 -17.80907333 30.61999443 -18.8656311 31.04927063 C-20.30547807 31.63389799 -21.74561466 32.21781254 -23.18603516 32.80102539 C-25.39170974 33.69426702 -27.59630487 34.59013402 -29.80078125 35.48632812 C-31.20827101 36.05744528 -32.61582091 36.62841425 -34.0234375 37.19921875 C-35.00780289 37.59919319 -35.00780289 37.59919319 -36.01205444 38.00724792 C-38.65828932 39.07755009 -41.29099651 40.09699884 -44 41 C-22.05017911 50.12316843 -22.05017911 50.12316843 0 59 C0 66.92 0 74.84 0 83 C-4.37996376 82.12400725 -7.19434448 81.09859457 -11.12890625 79.15625 C-11.71146683 78.87121109 -12.2940274 78.58617218 -12.89424133 78.29249573 C-14.14019404 77.68249084 -15.38495134 77.07003923 -16.62860107 76.45535278 C-19.89579694 74.84134668 -23.1724557 73.24681517 -26.44921875 71.65234375 C-27.09961121 71.33551132 -27.75000366 71.01867889 -28.42010498 70.69224548 C-36.13214568 66.9464789 -43.95893612 63.46804319 -51.79394531 59.98925781 C-57.56386721 57.40186034 -63.27992328 54.69536948 -69 52 C-69.23329086 48.77206203 -69.37467674 45.54628768 -69.5 42.3125 C-69.56703125 41.40048828 -69.6340625 40.48847656 -69.703125 39.54882812 C-69.89409313 32.98429882 -69.89409313 32.98429882 -67.57470703 30.4309082 C-65.44912984 29.05631759 -63.31378204 28.02694203 -61 27 C-60.14567383 26.56872803 -59.29134766 26.13745605 -58.41113281 25.69311523 C-55.58620143 24.2692872 -52.73690521 22.91034978 -49.875 21.5625 C-48.855271 21.0780542 -47.83554199 20.5936084 -46.78491211 20.09448242 C-40.36636638 17.06263981 -33.90492433 14.2089087 -27.35546875 11.47265625 C-20.03048633 8.25785023 -12.77393961 4.66530904 -5.7890625 0.765625 C-4 0 -4 0 0 0 Z M-12.859375 8.125 C-13.80208252 8.58028076 -14.74479004 9.03556152 -15.71606445 9.50463867 C-17.21786255 10.24484253 -17.21786255 10.24484253 -18.75 11 C-19.78406982 11.50184814 -20.81813965 12.00369629 -21.88354492 12.52075195 C-28.34483552 15.66534372 -34.76789762 18.88306045 -41.17675781 22.1328125 C-48.98060785 26.05303733 -56.99440213 29.51608241 -65 33 C-65 38.28 -65 43.56 -65 49 C-63.9584375 49.4846875 -62.916875 49.969375 -61.84375 50.46875 C-54.70154723 53.80463921 -47.58966341 57.17756276 -40.5625 60.75 C-33.15987106 64.49660522 -25.65114189 68.00928859 -18.125 71.5 C-16.96427979 72.04108398 -15.80355957 72.58216797 -14.60766602 73.13964844 C-13.52283936 73.64012695 -12.4380127 74.14060547 -11.3203125 74.65625 C-10.34336426 75.10806641 -9.36641602 75.55988281 -8.35986328 76.02539062 C-6.11744042 77.12724036 -6.11744042 77.12724036 -4 77 C-4 72.05 -4 67.1 -4 62 C-11.76921134 58.4018317 -19.60082977 55.08423221 -27.5625 51.9375 C-28.62146484 51.51662109 -29.68042969 51.09574219 -30.77148438 50.66210938 C-32.85339877 49.83473119 -34.93621812 49.00962579 -37.02001953 48.18701172 C-38.98445825 47.40451942 -40.94397092 46.60952846 -42.89794922 45.80126953 C-43.78627441 45.43501465 -44.67459961 45.06875977 -45.58984375 44.69140625 C-46.37093506 44.36470947 -47.15202637 44.0380127 -47.95678711 43.70141602 C-50.11286747 42.83765438 -50.11286747 42.83765438 -53 43 C-52.67 42.01 -52.34 41.02 -52 40 C-49.23120117 38.63720703 -49.23120117 38.63720703 -45.54296875 37.2578125 C-44.88476639 37.00756317 -44.22656403 36.75731384 -43.54841614 36.4994812 C-41.4319947 35.69720906 -39.31013673 34.9106622 -37.1875 34.125 C-35.11247525 33.34592759 -33.0386954 32.56361721 -30.96511841 31.78070068 C-29.601869 31.26601464 -28.23816043 30.75254309 -26.87399292 30.24029541 C-21.71603983 28.29602537 -16.61965902 26.22510744 -11.54418945 24.07373047 C-9.04241985 23.01790255 -6.52122434 22.00848974 -4 21 C-4 16.05 -4 11.1 -4 6 C-7.99672794 6 -9.38983186 6.43344811 -12.859375 8.125 Z " fill="#31D592" transform="translate(146,147)"/>
<path d="M0 0 C3.627406 0.48292243 6.57740902 1.59016284 9.8515625 3.1875 C10.77541748 3.63432129 11.69927246 4.08114258 12.65112305 4.54150391 C13.63250244 5.02280762 14.61388184 5.50411133 15.625 6 C17.70689953 7.00808457 19.78893266 8.01589328 21.87109375 9.0234375 C22.90733887 9.52713867 23.94358398 10.03083984 25.01123047 10.54980469 C29.22698596 12.59535179 33.45408699 14.61628873 37.6875 16.625 C38.43902344 16.98207031 39.19054687 17.33914062 39.96484375 17.70703125 C46.85354554 20.96329472 53.80133759 24.0855604 60.76831055 27.17041016 C61.56922119 27.5266748 62.37013184 27.88293945 63.1953125 28.25 C63.90703613 28.56453125 64.61875977 28.8790625 65.35205078 29.203125 C67 30 67 30 68 31 C68.08685603 32.56172745 68.10702219 34.12729344 68.09765625 35.69140625 C68.09282227 37.10776367 68.09282227 37.10776367 68.08789062 38.55273438 C68.07532227 40.04256836 68.07532227 40.04256836 68.0625 41.5625 C68.05798828 42.55958984 68.05347656 43.55667969 68.04882812 44.58398438 C68.03700007 47.05604849 68.02051849 49.52799518 68 52 C67.08347656 52.391875 66.16695313 52.78375 65.22265625 53.1875 C54.42961714 57.86782316 43.82989101 62.92338601 33.25 68.0625 C32.20357834 68.57043091 32.20357834 68.57043091 31.13601685 69.08862305 C29.07434188 70.09017993 27.01366152 71.09375966 24.953125 72.09765625 C23.95580605 72.58161362 23.95580605 72.58161362 22.93833923 73.0753479 C19.60287108 74.7004903 16.29239257 76.35970707 13.00976562 78.08935547 C12.37367371 78.42051865 11.73758179 78.75168182 11.08221436 79.09288025 C9.34397349 80.00131564 7.61265107 80.92295418 5.88183594 81.84545898 C3 83 3 83 -1 82 C-1 74.74 -1 67.48 -1 60 C4.43368047 57.28315976 9.74664208 54.78241685 15.3671875 52.546875 C16.12798615 52.24179016 16.88878479 51.93670532 17.67263794 51.62237549 C19.26350367 50.98548936 20.85505481 50.35031281 22.44726562 49.71679688 C24.89142765 48.74345801 27.33252251 47.7626992 29.7734375 46.78125 C31.32534389 46.16101541 32.87742111 45.54120807 34.4296875 44.921875 C35.5249324 44.48134796 35.5249324 44.48134796 36.64230347 44.03192139 C41.77001589 42 41.77001589 42 44 42 C44 41.34 44 40.68 44 40 C42.83162598 39.72599365 41.66325195 39.4519873 40.45947266 39.16967773 C36.39907266 38.15259833 32.55363877 36.80143597 28.6484375 35.28515625 C27.98590973 35.02874863 27.32338196 34.772341 26.64077759 34.50816345 C25.25344466 33.97004923 23.86700581 33.42962456 22.48144531 32.88696289 C20.37529266 32.06261455 18.26605417 31.2465917 16.15625 30.43164062 C10.31613956 28.16134821 4.57335712 25.88139477 -1 23 C-1.02887512 19.35418313 -1.04675585 15.70839537 -1.0625 12.0625 C-1.07087891 11.02158203 -1.07925781 9.98066406 -1.08789062 8.90820312 C-1.09272461 7.42416992 -1.09272461 7.42416992 -1.09765625 5.91015625 C-1.10289307 4.99371338 -1.10812988 4.07727051 -1.11352539 3.13305664 C-1 1 -1 1 0 0 Z M3 5 C3 10.28 3 15.56 3 21 C5.289375 21.845625 7.57875 22.69125 9.9375 23.5625 C16.70673331 26.08289169 23.39977165 28.76125309 30.06225586 31.55102539 C34.67159766 33.47678848 39.31780642 35.25848273 44 37 C44.928125 37.391875 45.85625 37.78375 46.8125 38.1875 C49.07979275 39.17409326 49.07979275 39.17409326 52 39 C52 40.32 52 41.64 52 43 C51.14994385 43.23130615 51.14994385 43.23130615 50.28271484 43.46728516 C42.83919941 45.58700108 35.76813754 48.41203936 28.625 51.375 C27.48289063 51.84421875 26.34078125 52.3134375 25.1640625 52.796875 C17.76591919 55.84020213 10.38261804 58.91924133 3 62 C3 66.95 3 71.9 3 77 C6.81727866 76.23654427 9.15694392 75.61882773 12.51953125 73.99609375 C13.36854004 73.58931396 14.21754883 73.18253418 15.09228516 72.76342773 C15.98995605 72.32587158 16.88762695 71.88831543 17.8125 71.4375 C18.74884277 70.98640869 19.68518555 70.53531738 20.64990234 70.07055664 C26.79697907 67.09980168 32.91094201 64.06559655 39.00512695 60.98803711 C47.26022626 56.83356521 55.6353514 52.92774804 64 49 C64 43.72 64 38.44 64 33 C62.45957031 32.29617187 60.91914063 31.59234375 59.33203125 30.8671875 C49.52700077 26.37154558 39.7325445 21.86413914 30.02734375 17.15625 C29.04886223 16.68168869 29.04886223 16.68168869 28.0506134 16.19754028 C24.87147071 14.65356576 21.69551151 13.10333766 18.52270508 11.54638672 C16.78670044 10.69971436 16.78670044 10.69971436 15.015625 9.8359375 C13.48856934 9.08642822 13.48856934 9.08642822 11.93066406 8.32177734 C8.54744396 6.73606829 8.54744396 6.73606829 3 5 Z " fill="#32B1C8" transform="translate(208,147)"/>
<path d="M0 0 C2.5625 0.3125 2.5625 0.3125 4.4375 1.3125 C7.36613724 6.51896621 3.60345688 17.12174657 2.6015625 22.8359375 C2.41032806 23.93612213 2.21909363 25.03630676 2.02206421 26.16983032 C1.41232091 29.67603256 0.8000458 33.18178638 0.1875 36.6875 C-0.61288771 41.27848792 -1.41211722 45.86967662 -2.2109375 50.4609375 C-2.50161858 52.12917572 -2.50161858 52.12917572 -2.798172 53.83111572 C-3.92688933 60.32294856 -5.02735782 66.81861326 -6.09765625 73.3203125 C-7.11931814 79.50896779 -8.21173391 85.67335541 -9.5 91.8125 C-9.74073242 93.02486328 -9.74073242 93.02486328 -9.98632812 94.26171875 C-11.19828869 100.07328869 -11.19828869 100.07328869 -13.4375 102.3125 C-15.9375 102.5625 -15.9375 102.5625 -18.4375 102.3125 C-20.4375 100.3125 -20.4375 100.3125 -20.66088867 96.78564453 C-20.53613442 92.01495083 -19.74194389 87.42382839 -18.86328125 82.7421875 C-18.69915741 81.83535217 -18.53503357 80.92851685 -18.36593628 79.99420166 C-17.83339572 77.05748592 -17.29162576 74.12255228 -16.75 71.1875 C-16.00990588 67.1203544 -15.27457839 63.05235068 -14.5390625 58.984375 C-14.35677597 57.9799234 -14.17448944 56.9754718 -13.98667908 55.94058228 C-12.45029159 47.45246979 -11.01595694 38.95046659 -9.625 30.4375 C-7.07432718 14.96883631 -7.07432718 14.96883631 -5.75 8.0625 C-5.53988281 6.96421875 -5.32976562 5.8659375 -5.11328125 4.734375 C-4.2050231 1.47934578 -3.39941942 0.435823 0 0 Z " fill="#1E2121" transform="translate(184.4375,136.6875)"/>
<path d="M0 0 C2.66308594 2.07861328 2.66308594 2.07861328 5 5 C5.38378906 8.31591797 5.38378906 8.31591797 5.015625 12.1171875 C4.95175598 12.81198212 4.88788696 13.50677673 4.82208252 14.22262573 C3.9427935 22.9263809 2.33894299 31.5289602 0.75 40.125 C0.2706922 42.77120099 -0.20554819 45.41794146 -0.68144226 48.0647583 C-0.9997098 49.83442849 -1.31896913 51.60392061 -1.63923645 53.37322998 C-2.85985544 60.13790416 -3.98449583 66.91486939 -5.07568359 73.70141602 C-10.00304059 104.29389307 -10.00304059 104.29389307 -13.375 108.86328125 C-15.77049724 110.53897764 -18.13880516 110.53395733 -20.9921875 110.40234375 C-23 110 -23 110 -26 108.0625 C-30.47654508 101.20779035 -27.41098265 91.42587557 -26.0234375 83.8125 C-25.81761047 82.64793274 -25.61178345 81.48336548 -25.39971924 80.2835083 C-24.73267497 76.52088848 -24.05446347 72.76039536 -23.375 69 C-22.91280452 66.41902481 -22.45105461 63.8379698 -21.98974609 61.25683594 C-21.30197419 57.4120499 -20.61308836 53.56748263 -19.92044067 49.72357178 C-18.62205501 42.5145348 -17.35924407 35.30103462 -16.140625 28.078125 C-15.75395944 25.82201879 -15.36570745 23.56619503 -14.97637939 21.31054688 C-14.7443816 19.95007345 -14.51735021 18.58874265 -14.29559326 17.2265625 C-13.99465743 15.38312084 -13.67368816 13.54298222 -13.3515625 11.703125 C-13.18479004 10.70958008 -13.01801758 9.71603516 -12.84619141 8.69238281 C-11.81657961 5.41639929 -10.36008607 3.47570673 -8 1 C-4.90786415 -0.03071195 -3.21050376 -0.45864339 0 0 Z M-8 6 C-8.61873875 8.48882134 -9.13243602 10.92570773 -9.5859375 13.4453125 C-9.72763367 14.19847748 -9.86932983 14.95164246 -10.01531982 15.72763062 C-10.47652567 18.19201204 -10.92606051 20.65835695 -11.375 23.125 C-11.6908313 24.83015452 -12.0070768 26.53523238 -12.32373047 28.24023438 C-14.34233272 39.16154035 -16.25505492 50.09776164 -18.0234375 61.0625 C-18.75696069 65.59134384 -19.54537026 70.10852945 -20.3515625 74.625 C-20.58587721 75.94594537 -20.82008959 77.26690889 -21.05419922 78.58789062 C-21.50619456 81.12921462 -21.96326433 83.6696432 -22.42626953 86.20898438 C-23.48579871 92.20103453 -24.4928677 97.91163434 -24 104 C-22.17213728 106.20857238 -22.17213728 106.20857238 -19.5625 106.4375 C-16.87881606 106.26832589 -16.87881606 106.26832589 -15.48046875 104.13671875 C-13.37769305 99.68149742 -12.62186532 95.2051565 -11.75 90.375 C-11.54383057 89.27196533 -11.33766113 88.16893066 -11.12524414 87.0324707 C-8.7362597 73.99823444 -6.65762001 60.9077785 -4.58691406 47.81982422 C-4.30703759 46.06080919 -4.02676695 44.30185683 -3.74609375 42.54296875 C-3.60950348 41.68312378 -3.47291321 40.82327881 -3.33218384 39.93737793 C-2.58732237 35.33317106 -1.77093624 30.75262168 -0.85986328 26.17822266 C-0.67069839 25.22555008 -0.48153351 24.2728775 -0.28663635 23.29133606 C0.08012982 21.46846027 0.45538083 19.64726407 0.84046936 17.82817078 C2.08687524 11.89272397 2.08687524 11.89272397 1 6 C-0.82703227 3.7508092 -0.82703227 3.7508092 -3.5 3.75 C-6.17296773 3.7508092 -6.17296773 3.7508092 -8 6 Z " fill="#33C3C8" transform="translate(188,133)"/>
<path d="M0 0 C3.61428669 0.59769489 6.56342301 1.58333959 9.8515625 3.1875 C10.77541748 3.63432129 11.69927246 4.08114258 12.65112305 4.54150391 C13.63250244 5.02280762 14.61388184 5.50411133 15.625 6 C17.70689953 7.00808457 19.78893266 8.01589328 21.87109375 9.0234375 C22.90733887 9.52713867 23.94358398 10.03083984 25.01123047 10.54980469 C29.22698596 12.59535179 33.45408699 14.61628873 37.6875 16.625 C38.43902344 16.98207031 39.19054687 17.33914062 39.96484375 17.70703125 C46.85354554 20.96329472 53.80133759 24.0855604 60.76831055 27.17041016 C61.56922119 27.5266748 62.37013184 27.88293945 63.1953125 28.25 C63.90703613 28.56453125 64.61875977 28.8790625 65.35205078 29.203125 C67 30 67 30 68 31 C68.08685603 32.56172745 68.10702219 34.12729344 68.09765625 35.69140625 C68.09282227 37.10776367 68.09282227 37.10776367 68.08789062 38.55273438 C68.07532227 40.04256836 68.07532227 40.04256836 68.0625 41.5625 C68.05798828 42.55958984 68.05347656 43.55667969 68.04882812 44.58398438 C68.03700007 47.05604849 68.02051849 49.52799518 68 52 C66.90945313 52.47308594 65.81890625 52.94617188 64.6953125 53.43359375 C63.17136397 54.10039578 61.64796958 54.76846509 60.125 55.4375 C59.32376709 55.7893335 58.52253418 56.14116699 57.69702148 56.50366211 C50.91711759 59.51673252 44.30076627 62.80540597 37.75244141 66.29272461 C35.87114075 67.26833226 33.93838791 68.14340513 32 69 C30.515 68.505 30.515 68.505 29 68 C29 67.01 29 66.02 29 65 C37.41459495 60.7417393 45.85499038 56.54395417 54.375 52.5 C55.10581787 52.15001953 55.83663574 51.80003906 56.58959961 51.43945312 C61.76362079 49 61.76362079 49 64 49 C64 43.72 64 38.44 64 33 C62.35 32.67 60.7 32.34 59 32 C56.94387773 31.11977031 54.91422537 30.17653467 52.90625 29.19140625 C51.72047363 28.61366455 50.53469727 28.03592285 49.31298828 27.44067383 C48.04198544 26.81462958 46.77098949 26.18857136 45.5 25.5625 C44.19678028 24.92600348 42.89322925 24.2901849 41.58935547 23.6550293 C38.96845069 22.37807362 36.34861416 21.09896731 33.72949219 19.81835938 C28.54267714 17.28565818 23.33638763 14.79418103 18.125 12.3125 C17.29548828 11.91554932 16.46597656 11.51859863 15.61132812 11.10961914 C14.44633789 10.55455688 14.44633789 10.55455688 13.2578125 9.98828125 C12.5992627 9.67415283 11.94071289 9.36002441 11.26220703 9.03637695 C8.20038679 7.63367601 5.09552887 6.32665523 2 5 C2 10.61 2 16.22 2 22 C1.67 22 1.34 22 1 22 C1.00523682 21.40461426 1.01047363 20.80922852 1.01586914 20.19580078 C1.03661999 17.50554453 1.04965407 14.81530511 1.0625 12.125 C1.07087891 11.18785156 1.07925781 10.25070313 1.08789062 9.28515625 C1.09111328 8.38925781 1.09433594 7.49335938 1.09765625 6.5703125 C1.10289307 5.74289551 1.10812988 4.91547852 1.11352539 4.06298828 C1.13352138 1.93588243 1.13352138 1.93588243 0 0 Z " fill="#28ADCE" transform="translate(208,147)"/>
<path d="M0 0 C0 0.66 0 1.32 0 2 C0.66 2.33 1.32 2.66 2 3 C2 2.34 2 1.68 2 1 C2.99 0.67 3.98 0.34 5 0 C5 1.32 5 2.64 5 4 C5.66 4 6.32 4 7 4 C7 4.66 7 5.32 7 6 C4.62586674 6.9605272 2.25074481 7.91847353 -0.125 8.875 C-0.79015625 9.14441406 -1.4553125 9.41382813 -2.140625 9.69140625 C-5.2048804 10.92311675 -8.19820258 12.05932281 -11.3671875 13.0078125 C-14.3022062 13.82174194 -14.3022062 13.82174194 -16 17 C-16.16713569 19.62531524 -16.16713569 19.62531524 -16 22 C-13.41916521 23.2904174 -10.74012041 24.10648248 -8 25 C-8.66 25.66 -9.32 26.32 -10 27 C-8.35 27.33 -6.7 27.66 -5 28 C-5 28.99 -5 29.98 -5 31 C-4.01 31.66 -3.02 32.32 -2 33 C-7.34762043 34.74455158 -10.48960053 33.22920835 -15.28125 30.88867188 C-16.1371875 30.45103516 -16.993125 30.01339844 -17.875 29.5625 C-18.75414063 29.12873047 -19.63328125 28.69496094 -20.5390625 28.24804688 C-22.70013046 27.17925783 -24.85287234 26.09645296 -27 25 C-27.13496251 22.89758397 -27.23197307 20.7927039 -27.3125 18.6875 C-27.37050781 17.51574219 -27.42851563 16.34398437 -27.48828125 15.13671875 C-27 12 -27 12 -24.60546875 10.08203125 C-22 9 -22 9 -20 9 C-20 8.34 -20 7.68 -20 7 C-19.26394531 6.74605469 -18.52789062 6.49210938 -17.76953125 6.23046875 C-16.79371094 5.88628906 -15.81789063 5.54210937 -14.8125 5.1875 C-13.84957031 4.85105469 -12.88664062 4.51460937 -11.89453125 4.16796875 C-8.9642986 3.08382238 -8.9642986 3.08382238 -6.38671875 1.36328125 C-4 0 -4 0 0 0 Z " fill="#241F20" transform="translate(110,170)"/>
<path d="M0 0 C0.33 0.66 0.66 1.32 1 2 C1.99 2 2.98 2 4 2 C2.93114429 9.23428944 1.76671482 16.44405298 0.4921875 23.64453125 C0.36080383 24.39096893 0.22942017 25.13740662 0.09405518 25.90646362 C-0.44897296 28.99066092 -0.99239696 32.07473234 -1.54638672 35.15698242 C-1.95645158 37.44344092 -2.3578112 39.73129361 -2.7578125 42.01953125 C-2.88278107 42.70304153 -3.00774963 43.38655182 -3.13650513 44.09077454 C-3.9521594 48.81354071 -4.18766065 53.22773093 -4 58 C-2.93354885 59.29633621 -2.93354885 59.29633621 -0.4375 59.0625 C0.366875 59.041875 1.17125 59.02125 2 59 C3.78653693 55.82020978 4.551356 52.88544456 5.21875 49.30859375 C5.42886719 48.19806641 5.63898438 47.08753906 5.85546875 45.94335938 C6.06816406 44.78642578 6.28085938 43.62949219 6.5 42.4375 C6.71269531 41.30763672 6.92539063 40.17777344 7.14453125 39.01367188 C8.45816195 32.01435737 9.73307438 25.00790352 11 18 C11.66 18.33 12.32 18.66 13 19 C13.24163443 27.31277974 12.62026296 35.12751598 11.1875 43.3125 C11.02185547 44.34439453 10.85621094 45.37628906 10.68554688 46.43945312 C8.46187789 59.53812211 8.46187789 59.53812211 4 64 C-0.80073273 64.55090376 -2.91189752 64.70273285 -7 62.0625 C-11.43517804 55.27113363 -8.44792863 45.71975443 -7.03125 38.18359375 C-6.8314856 37.08652603 -6.63172119 35.98945831 -6.42590332 34.85914612 C-5.79134322 31.38385775 -5.14585295 27.91070549 -4.5 24.4375 C-4.06568045 22.06979448 -3.63207925 19.70195707 -3.19921875 17.33398438 C-2.14111814 11.55443781 -1.07405619 5.77660148 0 0 Z " fill="#30D09F" transform="translate(169,179)"/>
<path d="M0 0 C0 7.59 0 15.18 0 23 C-6.76938465 26.0086154 -13.53923909 28.96350166 -20.375 31.8125 C-21.35855469 32.23208984 -22.34210938 32.65167969 -23.35546875 33.08398438 C-24.29777344 33.47521484 -25.24007812 33.86644531 -26.2109375 34.26953125 C-27.05962402 34.62635986 -27.90831055 34.98318848 -28.78271484 35.35083008 C-31 36 -31 36 -34 35 C-34.33 35 -34.66 35 -35 35 C-36.33568021 34.67619874 -37.66923011 34.34342449 -39 34 C-37.83984375 33.55269531 -36.6796875 33.10539062 -35.484375 32.64453125 C-33.90611125 32.03421285 -32.32799643 31.42350924 -30.75 30.8125 C-29.93184814 30.49587402 -29.11369629 30.17924805 -28.27075195 29.85302734 C-22.62386201 27.65772331 -17.03495346 25.3658816 -11.48046875 22.9453125 C-9 22 -9 22 -4 21 C-4 16.05 -4 11.1 -4 6 C-10.29456396 8.39792913 -16.4094438 11.06879853 -22.5 13.9375 C-23.61205811 14.45872437 -23.61205811 14.45872437 -24.74658203 14.99047852 C-28.68257791 16.85028238 -32.50620245 18.82220701 -36.3125 20.9375 C-41.63948692 23.6791962 -47.09111248 23.88832 -53 24 C-50.62663535 22.4177569 -48.48011724 21.21036962 -45.921875 20.00390625 C-45.10114502 19.61517334 -44.28041504 19.22644043 -43.43481445 18.82592773 C-42.54882568 18.40899658 -41.66283691 17.99206543 -40.75 17.5625 C-38.86316921 16.66950753 -36.9764549 15.77626892 -35.08984375 14.8828125 C-33.60653564 14.18140137 -33.60653564 14.18140137 -32.09326172 13.46582031 C-26.82648656 10.97002568 -21.56965785 8.45347303 -16.3125 5.9375 C-15.31508789 5.46062744 -14.31767578 4.98375488 -13.29003906 4.49243164 C-3.89759135 0 -3.89759135 0 0 0 Z " fill="#32D1A2" transform="translate(146,147)"/>
<path d="M0 0 C-1.32 0.33 -2.64 0.66 -4 1 C-4 1.66 -4 2.32 -4 3 C-7.3 4.32 -10.6 5.64 -14 7 C-10.10890767 8.61964446 -6.2168522 10.23694771 -2.32397461 11.85229492 C-1.00601386 12.39953897 0.31170374 12.94736906 1.62915039 13.49584961 C3.54766639 14.2944383 5.46707034 15.09085643 7.38671875 15.88671875 C8.01899384 16.14999969 8.65126892 16.41328064 9.30270386 16.68453979 C12.45542594 17.98805991 15.6154352 19.24140366 18.82275391 20.40478516 C20.59078369 21.04939697 20.59078369 21.04939697 22.39453125 21.70703125 C23.4513208 22.07932861 24.50811035 22.45162598 25.59692383 22.83520508 C26.38993896 23.2195874 27.1829541 23.60396973 28 24 C28.94137255 26.82411765 29.11725382 28.52918032 29.09765625 31.44921875 C29.09443359 32.29677734 29.09121094 33.14433594 29.08789062 34.01757812 C29.07532227 35.33918945 29.07532227 35.33918945 29.0625 36.6875 C29.05798828 37.58017578 29.05347656 38.47285156 29.04882812 39.39257812 C29.03704983 41.59511987 29.02060164 43.79752599 29 46 C27.35 46 25.7 46 24 46 C23.67 45.01 23.34 44.02 23 43 C23.99 43 24.98 43 26 43 C25.505 35.575 25.505 35.575 25 28 C22.79183594 27.13117188 20.58367187 26.26234375 18.30859375 25.3671875 C16.11397465 24.5033543 13.91941163 23.63937876 11.72485352 22.77539062 C10.22686486 22.18572447 8.7288201 21.59620083 7.23071289 21.00683594 C-2.85938427 17.03718375 -12.93720426 13.03837699 -23 9 C-22.62304688 7.07470703 -22.62304688 7.07470703 -22 5 C-16.24924603 1.5084708 -6.57527296 -2.19175765 0 0 Z " fill="#2CD597" transform="translate(116,181)"/>
<path d="M0 0 C-2.3039403 2.3039403 -4.12873117 2.98386967 -7.15625 4.1640625 C-8.17847656 4.56367188 -9.20070312 4.96328125 -10.25390625 5.375 C-11.32511719 5.7875 -12.39632812 6.2 -13.5 6.625 C-14.57121094 7.04523438 -15.64242187 7.46546875 -16.74609375 7.8984375 C-24.73161019 11 -24.73161019 11 -27 11 C-27 15.95 -27 20.9 -27 26 C-25.61425781 25.37351563 -24.22851562 24.74703125 -22.80078125 24.1015625 C-20.9713792 23.27598619 -19.14195073 22.45046843 -17.3125 21.625 C-16.40048828 21.2125 -15.48847656 20.8 -14.54882812 20.375 C-13.66259766 19.97539062 -12.77636719 19.57578125 -11.86328125 19.1640625 C-11.05157471 18.79748535 -10.23986816 18.4309082 -9.40356445 18.05322266 C-6.95558103 16.98053597 -4.48668534 15.97919283 -2 15 C-1.34 15.66 -0.68 16.32 0 17 C-2.41198239 19.73494868 -4.90519212 21.10460969 -8.18359375 22.6640625 C-9.19357422 23.14617187 -10.20355469 23.62828125 -11.24414062 24.125 C-12.29794922 24.62 -13.35175781 25.115 -14.4375 25.625 C-16.01241211 26.37910156 -16.01241211 26.37910156 -17.61914062 27.1484375 C-26.69028505 31.44985971 -26.69028505 31.44985971 -30 32 C-31 31 -31 31 -31.11352539 28.86694336 C-31.10828857 27.95050049 -31.10305176 27.03405762 -31.09765625 26.08984375 C-31.09443359 25.10048828 -31.09121094 24.11113281 -31.08789062 23.09179688 C-31.07951172 22.05087891 -31.07113281 21.00996094 -31.0625 19.9375 C-31.05798828 18.89271484 -31.05347656 17.84792969 -31.04882812 16.77148438 C-31.03699913 14.1809334 -31.02051689 11.59049441 -31 9 C-25.52078524 6.21710311 -20.01747794 3.56060199 -14.375 1.125 C-13.65054688 0.79242188 -12.92609375 0.45984375 -12.1796875 0.1171875 C-7.43720499 -1.9103956 -4.88187107 -2.3562343 0 0 Z " fill="#31C1C5" transform="translate(238,198)"/>
<path d="M0 0 C2.5625 0.3125 2.5625 0.3125 4.4375 1.3125 C7.11390496 6.07055327 3.95919458 15.01627728 3 20.3125 C2.86142578 21.08722656 2.72285156 21.86195313 2.58007812 22.66015625 C2.24273879 24.54460355 1.90288635 26.4286007 1.5625 28.3125 C1.129375 27.8175 0.69625 27.3225 0.25 26.8125 C-1.43490483 24.98031808 -1.43490483 24.98031808 -4.4375 25.3125 C-5.72196919 27.88143838 -5.76727144 30.07826337 -6 32.9375 C-6.12568359 34.44183594 -6.12568359 34.44183594 -6.25390625 35.9765625 C-6.31449219 36.74742187 -6.37507812 37.51828125 -6.4375 38.3125 C-7.9225 38.8075 -7.9225 38.8075 -9.4375 39.3125 C-9.4375 41.9525 -9.4375 44.5925 -9.4375 47.3125 C-11.4375 45.3125 -11.4375 45.3125 -11.51733398 43.29321289 C-10.68793002 35.43291199 -9.37577278 27.68256806 -7.90844727 19.9206543 C-7.49513682 17.72415506 -7.09590331 15.52537587 -6.69726562 13.32617188 C-6.43573612 11.92432214 -6.17339682 10.52262319 -5.91015625 9.12109375 C-5.55836304 7.23088501 -5.55836304 7.23088501 -5.19946289 5.30249023 C-4.29109364 1.73799224 -3.74162478 0.47969548 0 0 Z " fill="#1C1D20" transform="translate(184.4375,136.6875)"/>
<path d="M0 0 C2.21318923 0.60813363 2.21318923 0.60813363 4.88671875 -1.671875 C5.54671875 -1.671875 6.20671875 -1.671875 6.88671875 -1.671875 C6.32421875 0.140625 6.32421875 0.140625 4.88671875 2.328125 C1.37681411 4.11498554 -1.15452729 5.328125 -5.11328125 5.328125 C-5.77328125 6.25625 -6.43328125 7.184375 -7.11328125 8.140625 C-10.58766721 12.64880065 -15.7378804 13.37952485 -21.11328125 14.328125 C-22.10328125 14.328125 -23.09328125 14.328125 -24.11328125 14.328125 C-24.39852127 10.94961547 -24.53868161 7.69860476 -24.11328125 4.328125 C-22.05078125 2.390625 -22.05078125 2.390625 -19.11328125 1.328125 C-18.06140625 0.750625 -17.00953125 0.173125 -15.92578125 -0.421875 C-10.86077423 -2.55450953 -5.12886208 -1.63061789 0 0 Z " fill="#1F1F20" transform="translate(237.11328125,206.671875)"/>
<path d="M0 0 C0.99386719 0.00902344 1.98773438 0.01804688 3.01171875 0.02734375 C4.15060547 0.04474609 4.15060547 0.04474609 5.3125 0.0625 C5.8075 2.5375 5.8075 2.5375 6.3125 5.0625 C7.3025 5.3925 8.2925 5.7225 9.3125 6.0625 C8.384375 6.92875 8.384375 6.92875 7.4375 7.8125 C5.49902947 9.86499821 4.41235751 11.49616582 3.3125 14.0625 C2.3225 13.7325 1.3325 13.4025 0.3125 13.0625 C0.6425 11.4125 0.9725 9.7625 1.3125 8.0625 C0.3225 7.7325 -0.6675 7.4025 -1.6875 7.0625 C-2.0175 8.3825 -2.3475 9.7025 -2.6875 11.0625 C-10.6075 11.0625 -18.5275 11.0625 -26.6875 11.0625 C-27.0175 10.0725 -27.3475 9.0825 -27.6875 8.0625 C-27.3575 7.4025 -27.0275 6.7425 -26.6875 6.0625 C-20.7475 6.0625 -14.8075 6.0625 -8.6875 6.0625 C-8.6875 4.4125 -8.6875 2.7625 -8.6875 1.0625 C-5.53819107 0.01273036 -3.29935544 -0.03881595 0 0 Z " fill="#0E3633" transform="translate(242.6875,241.9375)"/>
<path d="M0 0 C0 4.95 0 9.9 0 15 C-1.98 15.66 -3.96 16.32 -6 17 C-6 16.34 -6 15.68 -6 15 C-4.35 14.67 -2.7 14.34 -1 14 C-1 11.03 -1 8.06 -1 5 C-3.31 4.67 -5.62 4.34 -8 4 C-8.33 4.99 -8.66 5.98 -9 7 C-9.66 7.0825 -10.32 7.165 -11 7.25 C-14.40644225 8.10161056 -17.15102233 9.5056162 -20.23046875 11.16015625 C-22 12 -22 12 -24 12 C-23.5359375 12.928125 -23.5359375 12.928125 -23.0625 13.875 C-22.375 15.25 -21.6875 16.625 -21 18 C-20.01 18.33 -19.02 18.66 -18 19 C-18.99 19.33 -19.98 19.66 -21 20 C-21.66 19.67 -22.32 19.34 -23 19 C-23 19.66 -23 20.32 -23 21 C-22.34 21.33 -21.68 21.66 -21 22 C-21.99 22 -22.98 22 -24 22 C-24.33 22.99 -24.66 23.98 -25 25 C-26.91772461 26.07495117 -26.91772461 26.07495117 -29.40234375 27.04296875 C-30.29244141 27.39423828 -31.18253906 27.74550781 -32.09960938 28.10742188 C-33.03611328 28.46384766 -33.97261719 28.82027344 -34.9375 29.1875 C-35.87013672 29.55552734 -36.80277344 29.92355469 -37.76367188 30.30273438 C-44.68448516 33 -44.68448516 33 -47 33 C-46 30 -46 30 -44.17407227 29.0168457 C-43.39604248 28.73929443 -42.6180127 28.46174316 -41.81640625 28.17578125 C-40.97142578 27.86962891 -40.12644531 27.56347656 -39.25585938 27.24804688 C-37.92264648 26.78495117 -37.92264648 26.78495117 -36.5625 26.3125 C-35.67755859 25.99216797 -34.79261719 25.67183594 -33.88085938 25.34179688 C-27.32482676 23 -27.32482676 23 -25 23 C-25 22.34 -25 21.68 -25 21 C-25.66 21 -26.32 21 -27 21 C-27.33 20.01 -27.66 19.02 -28 18 C-28.66 18 -29.32 18 -30 18 C-30 18.66 -30 19.32 -30 20 C-30.99 19.67 -31.98 19.34 -33 19 C-32.67 18.34 -32.34 17.68 -32 17 C-32.969375 17.4125 -33.93875 17.825 -34.9375 18.25 C-35.57171875 18.518125 -36.2059375 18.78625 -36.859375 19.0625 C-38.36215589 19.72065222 -39.85096248 20.41120335 -41.328125 21.125 C-42.10671875 21.49625 -42.8853125 21.8675 -43.6875 22.25 C-44.41324219 22.60578125 -45.13898438 22.9615625 -45.88671875 23.328125 C-48.37312947 24.11862896 -49.54345396 23.71278685 -52 23 C-51.03513672 22.56300781 -51.03513672 22.56300781 -50.05078125 22.1171875 C-29.77619655 12.94574479 -29.77619655 12.94574479 -9.9296875 2.89013672 C-9.23101562 2.52291504 -8.53234375 2.15569336 -7.8125 1.77734375 C-7.17957031 1.43823975 -6.54664063 1.09913574 -5.89453125 0.74975586 C-4 0 -4 0 0 0 Z " fill="#1C201D" transform="translate(142,153)"/>
<path d="M0 0 C1.5843317 0.08768248 3.16753567 0.19587329 4.75 0.3125 C6.07257813 0.39951172 6.07257813 0.39951172 7.421875 0.48828125 C10.35360366 1.07018497 11.65209281 2.22013488 14 4 C16.73713695 4.37460816 19.22025584 4.13898721 22 4 C22 4.66 22 5.32 22 6 C26.77830905 8.91360308 29.55106131 9.19876651 35 8 C35.28875 8.78375 35.5775 9.5675 35.875 10.375 C36.84912254 13.09671632 36.84912254 13.09671632 39 15 C38.34928072 17.92823675 37.65065146 19.58437978 35.0859375 21.22265625 C33.07869072 22.21209415 31.0657943 23.14005307 29 24 C29.99 24.66 30.98 25.32 32 26 C32 26.66 32 27.32 32 28 C33.43931117 27.54738642 34.87638999 27.08767021 36.3125 26.625 C37.11300781 26.36976563 37.91351563 26.11453125 38.73828125 25.8515625 C41.22724528 25.01168189 41.22724528 25.01168189 44 23 C44.99 23 45.98 23 47 23 C46.98743487 18.5959216 46.86842733 14.32575123 46 10 C43.15899225 7.53025527 43.15899225 7.53025527 40 7 C40.33 6.34 40.66 5.68 41 5 C43.31 5.99 45.62 6.98 48 8 C48 13.28 48 18.56 48 24 C45.3773768 25.33819498 42.75213401 26.6707151 40.125 28 C39.37863281 28.3815625 38.63226563 28.763125 37.86328125 29.15625 C37.14785156 29.5171875 36.43242187 29.878125 35.6953125 30.25 C35.03547363 30.58515625 34.37563477 30.9203125 33.69580078 31.265625 C32 32 32 32 30 32 C30.33 30.35 30.66 28.7 31 27 C28.36 27.66 25.72 28.32 23 29 C23.33 28.01 23.66 27.02 24 26 C21.36 26 18.72 26 16 26 C19.35690365 23.76206424 22.8339284 22.34949662 26.5625 20.875 C27.24763672 20.59785156 27.93277344 20.32070312 28.63867188 20.03515625 C33.7466133 18 33.7466133 18 36 18 C36 16.68 36 15.36 36 14 C35.13375 13.896875 34.2675 13.79375 33.375 13.6875 C29.78810804 12.95683682 27.2641253 11.6360336 24 10 C21.76229311 9.15423164 19.51139228 8.3427315 17.25 7.5625 C11.43273258 5.52460377 5.69776491 3.34999981 0 1 C0 0.67 0 0.34 0 0 Z " fill="#0A2731" transform="translate(224,172)"/>
<path d="M0 0 C0.33 0 0.66 0 1 0 C0.41466458 6.92012933 -0.56649494 13.68070707 -1.84765625 20.50390625 C-2.20920094 22.4810802 -2.57052237 24.45829499 -2.93164062 26.43554688 C-3.49702202 29.50570789 -4.06489795 32.57536413 -4.63696289 35.64428711 C-5.19332409 38.63792635 -5.73980511 41.63324459 -6.28515625 44.62890625 C-6.45700943 45.53540421 -6.62886261 46.44190216 -6.80592346 47.37586975 C-8.85508659 57.2294446 -8.85508659 57.2294446 -6.5 66.5625 C-2.70416736 68.74510377 -0.35503854 68.55302077 4 68 C11.67939604 60.32060396 11.4329704 41.42463662 13 31 C13.33 31 13.66 31 14 31 C14.09075133 36.62658248 13.87627451 42.0516667 13.21875 47.640625 C12.99008733 50.10691527 12.96488765 52.52457936 13 55 C12.01 55.495 12.01 55.495 11 56 C10.82057837 59.94727588 10.90649311 62.5980513 13 66 C12.01 66 11.02 66 10 66 C9.443125 66.639375 8.88625 67.27875 8.3125 67.9375 C5.15196768 70.75635315 2.10809474 71.19890217 -2 71 C-5.33869127 70.20600325 -8.19624357 69.16557605 -10.21484375 66.23828125 C-11.21189288 63.39594717 -11.01477122 61.3638143 -10.6875 58.375 C-10.57792969 57.32441406 -10.46835938 56.27382812 -10.35546875 55.19140625 C-10.23816406 54.13824219 -10.12085938 53.08507812 -10 52 C-9.83308884 50.10418818 -9.66639895 48.20835685 -9.5 46.3125 C-9.12609457 42.12609457 -9.12609457 42.12609457 -8 41 C-7.49779738 38.16830333 -7.04605737 35.34399851 -6.625 32.5 C-6.35916822 30.7680607 -6.0922168 29.03629292 -5.82421875 27.3046875 C-5.61998291 25.98162598 -5.61998291 25.98162598 -5.41162109 24.63183594 C-4.78479779 20.62403333 -4.1236132 16.62304799 -3.4375 12.625 C-3.32293457 11.93083984 -3.20836914 11.23667969 -3.09033203 10.52148438 C-2.44319171 6.79469047 -1.55279426 3.45213488 0 0 Z " fill="#042C1F" transform="translate(169,174)"/>
<path d="M0 0 C0.66 0.33 1.32 0.66 2 1 C2.38749213 3.32495277 2.71758117 5.6599583 3 8 C3.33 8.99 3.66 9.98 4 11 C3.64126778 13.1810919 3.18991799 15.34746037 2.6875 17.5 C1.45007177 22.94694437 0.35844499 28.383256 -0.5703125 33.890625 C-1 36 -1 36 -2 38 C-3.65 37.67 -5.3 37.34 -7 37 C-7.21636136 31.05006255 -6.85002247 25.22800817 -6.25 19.3125 C-6.18828613 18.58812744 -6.12657227 17.86375488 -6.06298828 17.11743164 C-5.50957677 12.10048593 -4.05770119 9.13153673 -1 5 C-0.21784412 2.2717496 -0.21784412 2.2717496 0 0 Z " fill="#1F1F1E" transform="translate(173,199)"/>
<path d="M0 0 C5.96564796 0.50771472 10.63809899 2.38592128 16 5 C16 6.32 16 7.64 16 9 C17.65 9 19.3 9 21 9 C21 12.3 21 15.6 21 19 C14.41394135 16.36125072 8.05479563 13.71544277 2 10 C2.33 9.34 2.66 8.68 3 8 C1.35 7.67 -0.3 7.34 -2 7 C-2.33 6.01 -2.66 5.02 -3 4 C-2.505 3.525625 -2.01 3.05125 -1.5 2.5625 C0.11542197 1.24076302 0.11542197 1.24076302 0 0 Z " fill="#21201F" transform="translate(120,203)"/>
<path d="M0 0 C0.33 0 0.66 0 1 0 C0.1665172 8.73172457 -1.30007929 17.35438365 -2.75 26 C-2.88216919 26.79025574 -3.01433838 27.58051147 -3.1505127 28.39471436 C-4.90048079 38.82729758 -6.71886784 49.24296873 -8.75 59.625 C-8.94819336 60.66011719 -9.14638672 61.69523437 -9.35058594 62.76171875 C-9.53911133 63.69886719 -9.72763672 64.63601562 -9.921875 65.6015625 C-10.08268555 66.40932129 -10.24349609 67.21708008 -10.40917969 68.04931641 C-11 70 -11 70 -13 72 C-15.5 72.25 -15.5 72.25 -18 72 C-20 70 -20 70 -20.21875 66.4375 C-20.10309387 61.869083 -19.36164638 57.47900864 -18.5 53 C-18.35691406 52.22527344 -18.21382812 51.45054687 -18.06640625 50.65234375 C-17.71727671 48.76704421 -17.35954684 46.88334061 -17 45 C-16.67 45 -16.34 45 -16 45 C-15.8968115 51.19131022 -16.20769948 57.23276937 -16.78125 63.3984375 C-17.0418942 66.06311795 -17.0418942 66.06311795 -17 69 C-15.68 69.33 -14.36 69.66 -13 70 C-12.37357286 66.27107163 -11.74893868 62.54184553 -11.125 58.8125 C-10.9401001 57.7085791 -10.7552002 56.6046582 -10.56469727 55.46728516 C-9.64303616 49.94220147 -8.74708571 44.41754834 -7.9375 38.875 C-7.1106141 33.35754895 -5.93193404 27.94478845 -4.72265625 22.5 C-3.79413715 18.00295613 -3.13672628 13.48755626 -2.52734375 8.9375 C-1.96829794 5.8234078 -1.06683915 2.97475482 0 0 Z " fill="#012F1D" transform="translate(184,167)"/>
<path d="M0 0 C-1.32 0.99 -2.64 1.98 -4 3 C-3.01 3.33 -2.02 3.66 -1 4 C-1 4.66 -1 5.32 -1 6 C-0.31679687 6.10957031 0.36640625 6.21914062 1.0703125 6.33203125 C4.52083628 7.11875067 7.59952223 8.34561072 10.875 9.6875 C12.19908719 10.22818686 13.52331023 10.76854117 14.84765625 11.30859375 C15.52715332 11.58687012 16.20665039 11.86514648 16.90673828 12.15185547 C19.01338899 13.00542493 21.12771851 13.83615371 23.24609375 14.66015625 C23.92752441 14.92675049 24.60895508 15.19334473 25.31103516 15.46801758 C26.62308301 15.9806413 27.93652107 16.48972404 29.25146484 16.99487305 C31.99865811 18.07623094 33.88755202 18.88755202 36 21 C36.24291992 23.30664062 36.24291992 23.30664062 36.23046875 26.15625 C36.22853516 27.17847656 36.22660156 28.20070312 36.22460938 29.25390625 C36.20624023 30.86072266 36.20624023 30.86072266 36.1875 32.5 C36.18685547 33.57121094 36.18621094 34.64242187 36.18554688 35.74609375 C36.14030114 43.71939772 36.14030114 43.71939772 35 46 C27.25 45.125 27.25 45.125 25 44 C25 43.34 25 42.68 25 42 C27.97 42.99 30.94 43.98 34 45 C34 37.08 34 29.16 34 21 C30.7 20.01 27.4 19.02 24 18 C21.78525505 17.17253333 19.5825331 16.31152493 17.3984375 15.40625 C16.24859375 14.93316406 15.09875 14.46007812 13.9140625 13.97265625 C12.74617188 13.48667969 11.57828125 13.00070313 10.375 12.5 C8.02906197 11.53024272 5.68271779 10.56146727 3.3359375 9.59375 C1.69963379 8.91892578 1.69963379 8.91892578 0.03027344 8.23046875 C-3.62226841 6.74732253 -7.29751732 5.35300601 -11 4 C-9.71264403 1.42528807 -8.71510189 1.29583343 -6.0625 0.3125 C-5.35222656 0.04050781 -4.64195313 -0.23148438 -3.91015625 -0.51171875 C-2 -1 -2 -1 0 0 Z " fill="#032C18" transform="translate(112,185)"/>
<path d="M0 0 C0 0.66 0 1.32 0 2 C-1.98 2.99 -1.98 2.99 -4 4 C-2.02 4.33 -0.04 4.66 2 5 C-0.21846272 7.21846272 -1.41367691 7.53874597 -4.375 8.375 C-7.53962761 9.35260789 -8.80245462 9.79083431 -11.125 12.25 C-11.74375 12.8275 -12.3625 13.405 -13 14 C-16.5625 13.75 -16.5625 13.75 -20 13 C-23.16318671 12.72057327 -23.16318671 12.72057327 -25.875 14.9375 C-28.80241032 16.86959081 -30.53392028 17.80744002 -34 18 C-34.66 17.34 -35.32 16.68 -36 16 C-31.1968079 13.71645301 -26.39128121 11.43792347 -21.58349609 9.1640625 C-19.94742309 8.38940549 -18.3120029 7.61336822 -16.67724609 6.8359375 C-14.33079529 5.72034173 -11.98206095 4.60968987 -9.6328125 3.5 C-8.89942657 3.15001953 -8.16604065 2.80003906 -7.41043091 2.43945312 C-2.22774341 0 -2.22774341 0 0 0 Z " fill="#1C1F1B" transform="translate(254,209)"/>
<path d="M0 0 C0.33 0 0.66 0 1 0 C1 4.29 1 8.58 1 13 C5.71820634 11.18530526 10.36287384 9.34004733 14.8984375 7.10546875 C15.56609131 6.7794165 16.23374512 6.45336426 16.92163086 6.11743164 C18.25637998 5.46032189 19.58550285 4.79164736 20.90844727 4.11108398 C22.77734375 3.1953125 22.77734375 3.1953125 26 2 C26.99 2.66 27.98 3.32 29 4 C25.35451941 8.05962251 20.53983396 9.87827658 15.6875 12.1875 C14.74970703 12.65091797 13.81191406 13.11433594 12.84570312 13.59179688 C4.29569112 17.68302884 4.29569112 17.68302884 -1 17 C-1.02699725 14.72923158 -1.04639453 12.45837179 -1.0625 10.1875 C-1.07990234 8.29064453 -1.07990234 8.29064453 -1.09765625 6.35546875 C-1 3 -1 3 0 0 Z " fill="#2FC6BA" transform="translate(209,211)"/>
<path d="M0 0 C3.67207307 6.12012178 3.08452097 12.38079217 1.78515625 19.12109375 C1.65056503 19.86585464 1.51597382 20.61061554 1.37730408 21.37794495 C0.94926787 23.7331418 0.50616157 26.08520202 0.0625 28.4375 C-0.23212404 30.04343588 -0.52575379 31.6495545 -0.81835938 33.25585938 C-1.53409472 37.17277957 -2.26334967 41.08696169 -3 45 C-3.33 45 -3.66 45 -4 45 C-4.144375 43.906875 -4.28875 42.81375 -4.4375 41.6875 C-4.88288104 38.06877013 -4.88288104 38.06877013 -6 35 C-5.66987175 32.31713197 -5.26806394 29.70633678 -4.78515625 27.05078125 C-4.58326942 25.89185616 -4.58326942 25.89185616 -4.37730408 24.70951843 C-3.94592488 22.24257692 -3.5043482 19.77758574 -3.0625 17.3125 C-2.76820673 15.64009233 -2.47457875 13.96756744 -2.18164062 12.29492188 C-1.46213934 8.1952146 -0.7334874 4.09722711 0 0 Z " fill="#2FC2B7" transform="translate(186,160)"/>
<path d="M0 0 C2.38460953 2.07691798 2.8959746 3.40556916 3.4375 6.5 C2.84278924 9.89834723 1.79734842 11.01241034 -1 13 C-4.0625 13.5 -4.0625 13.5 -7 13 C-9.59814888 10.74827097 -9.95716454 9.34982295 -10.375 5.9375 C-10 3 -10 3 -8.9375 1.125 C-5.85928089 -0.66235303 -3.47093932 -0.43386742 0 0 Z " fill="#3199CA" transform="translate(298,180)"/>
<path d="M0 0 C1.32 0 2.64 0 4 0 C4.33 1.98 4.66 3.96 5 6 C5.66 5.67 6.32 5.34 7 5 C8.99960012 4.960008 11.00047242 4.95653201 13 5 C13.33 6.32 13.66 7.64 14 9 C12.35 9.33 10.7 9.66 9 10 C9 12.64 9 15.28 9 18 C8.34 17.34 7.68 16.68 7 16 C6.01 16 5.02 16 4 16 C3.34 14.35 2.68 12.7 2 11 C0.02 11.33 -1.96 11.66 -4 12 C-4 10.68 -4 9.36 -4 8 C-2.35 7.67 -0.7 7.34 1 7 C0.67 4.69 0.34 2.38 0 0 Z " fill="#073737" transform="translate(117,108)"/>
<path d="M0 0 C-4.90319345 3.89939577 -10.48821462 6.44812784 -16.0625 9.25 C-17.71475586 10.10078125 -17.71475586 10.10078125 -19.40039062 10.96875 C-20.45548828 11.49984375 -21.51058594 12.0309375 -22.59765625 12.578125 C-23.56195557 13.06700195 -24.52625488 13.55587891 -25.51977539 14.05957031 C-28 15 -28 15 -31 14 C-31 13.01 -31 12.02 -31 11 C-26.33269615 8.64057768 -21.65776549 6.29795222 -16.97021484 3.97900391 C-15.35655471 3.17717279 -13.74955595 2.36194852 -12.14453125 1.54296875 C-7.69734313 -0.62321755 -4.96078721 -1.52639606 0 0 Z " fill="#2EB8C7" transform="translate(268,201)"/>
<path d="M0 0 C3.95820859 0.56545837 6.6659053 1.80902348 10 4 C9.34 4.66 8.68 5.32 8 6 C8.66 7.32 9.32 8.64 10 10 C9.01 10.33 8.02 10.66 7 11 C6.67 11.66 6.34 12.32 6 13 C4.51965236 12.52449439 3.04074979 12.04448784 1.5625 11.5625 C0.73878906 11.29566406 -0.08492187 11.02882812 -0.93359375 10.75390625 C-3 10 -3 10 -4 9 C-4.14115161 6.32941149 -4.04247107 3.67567762 -4 1 C-3.67 1.66 -3.34 2.32 -3 3 C-2.01 2.34 -1.02 1.68 0 1 C0 0.67 0 0.34 0 0 Z " fill="#241E22" transform="translate(217,157)"/>
<path d="M0 0 C0.33 0 0.66 0 1 0 C1.33 4.95 1.66 9.9 2 15 C2.33 11.04 2.66 7.08 3 3 C3.33 3 3.66 3 4 3 C4 7.62 4 12.24 4 17 C5.32 17.33 6.64 17.66 8 18 C10.26484857 18.98745209 12.51391358 20.01153938 14.75 21.0625 C15.92046875 21.61035156 17.0909375 22.15820312 18.296875 22.72265625 C19.63492188 23.35494141 19.63492188 23.35494141 21 24 C19.16015625 25.53125 19.16015625 25.53125 17 27 C11.13070743 25.85477218 5.39738575 22.50122754 0 20 C0 13.4 0 6.8 0 0 Z " fill="#2AD386" transform="translate(77,179)"/>
<path d="M0 0 C0 0.66 0 1.32 0 2 C-1.4540625 2.3403125 -1.4540625 2.3403125 -2.9375 2.6875 C-6.29381041 4.6898418 -6.29381041 4.6898418 -6.62109375 8.09375 C-6.85492153 11.40331244 -6.99053513 14.68256258 -7 18 C-6.20851563 18.23589844 -5.41703125 18.47179687 -4.6015625 18.71484375 C0.85919053 20.66342048 5.97982421 23.27418649 11.1875 25.81054688 C12.00476563 26.20435547 12.82203125 26.59816406 13.6640625 27.00390625 C14.40092285 27.36299072 15.1377832 27.7220752 15.89697266 28.09204102 C17.92073147 28.96577668 19.84965574 29.53331275 22 30 C22 30.66 22 31.32 22 32 C22.99 32 23.98 32 25 32 C25.33 32.99 25.66 33.98 26 35 C21.85459047 33.69489242 17.9962906 32.14315289 14.0859375 30.25 C12.99539062 29.7240625 11.90484375 29.198125 10.78125 28.65625 C9.6571875 28.1096875 8.533125 27.563125 7.375 27 C6.24320313 26.4534375 5.11140625 25.906875 3.9453125 25.34375 C-0.38179177 23.25197448 -4.70117594 21.14941203 -9 19 C-9 13.72 -9 8.44 -9 3 C-2 0 -2 0 0 0 Z " fill="#023817" transform="translate(90,177)"/>
<path d="M0 0 C3.3 0 6.6 0 10 0 C11.50135771 3.00271543 10.95991786 5.98274847 10.75 9.25 C10.70625244 9.95640625 10.66250488 10.6628125 10.61743164 11.390625 C10.10131491 18.42929461 8.70182243 25.14989713 7 32 C3.13678332 25.28536148 4.84439321 17.50419677 6.66015625 10.32421875 C7.05212024 7.64354551 6.66070764 5.61048824 6 3 C4.02 2.34 2.04 1.68 0 1 C0 0.67 0 0.34 0 0 Z " fill="#30BBCD" transform="translate(182,136)"/>
<path d="M0 0 C-2.75384918 2.75384918 -6.05751768 3.74896037 -9.625 5.125 C-12.05875 6.07375 -14.4925 7.0225 -17 8 C-17 15.26 -17 22.52 -17 30 C-13.5879008 29.1469752 -10.32514673 28.13357275 -7 27 C-7 27.66 -7 28.32 -7 29 C-11.22949995 31.41685712 -14.12335991 32.34833144 -19 32 C-20.08373836 25.71599775 -20.04174112 19.67957429 -19.87304688 13.3203125 C-19.7793218 8.36588036 -19.7793218 8.36588036 -22 4 C-22 3.34 -22 2.68 -22 2 C-21.01 1.67 -20.02 1.34 -19 1 C-19 1.66 -19 2.32 -19 3 C-17.6078125 2.7525 -17.6078125 2.7525 -16.1875 2.5 C-13 2 -13 2 -10 2 C-9.21625 1.67 -8.4325 1.34 -7.625 1 C-4.87641865 -0.04707861 -2.91132993 -0.16636171 0 0 Z " fill="#102526" transform="translate(225,199)"/>
<path d="M0 0 C3.68090876 1.22696959 6.87516346 2.30969334 10.3046875 3.9453125 C11.05234375 4.29980469 11.8 4.65429688 12.5703125 5.01953125 C13.33085937 5.38433594 14.09140625 5.74914062 14.875 6.125 C16.050625 6.68380859 16.050625 6.68380859 17.25 7.25390625 C19.16813499 8.16618997 21.08427329 9.08266984 23 10 C23 10.33 23 10.66 23 11 C17.22621075 10.5188509 13.04140164 8.81532819 8 6 C7.34 6.66 6.68 7.32 6 8 C5.01 8 4.02 8 3 8 C3 9.98 3 11.96 3 14 C7.455 15.98 7.455 15.98 12 18 C12 18.66 12 19.32 12 20 C8 18.66666667 4 17.33333333 0 16 C0 10.72 0 5.44 0 0 Z " fill="#09252D" transform="translate(211,152)"/>
<path d="M0 0 C0.66 0.33 1.32 0.66 2 1 C2.5204272 11.00376724 0.94283365 20.24556579 -1 30 C-1.19722656 30.99128906 -1.39445313 31.98257813 -1.59765625 33.00390625 C-1.73042969 33.66261719 -1.86320313 34.32132813 -2 35 C-2.33 35 -2.66 35 -3 35 C-5.1834756 26.53903205 -3.73063718 18.33927575 -2 9.9375 C-1.80921875 8.97650391 -1.6184375 8.01550781 -1.421875 7.02539062 C-0.95551945 4.681954 -0.48145534 2.34037235 0 0 Z " fill="#2CD6AE" transform="translate(180,197)"/>
<path d="M0 0 C1.5631897 0.00785522 1.5631897 0.00785522 3.15795898 0.01586914 C4.28266602 0.0190918 5.40737305 0.02231445 6.56616211 0.02563477 C7.75016602 0.03401367 8.93416992 0.04239258 10.15405273 0.05102539 C11.34192383 0.05553711 12.52979492 0.06004883 13.75366211 0.06469727 C16.69967499 0.07652864 19.64558954 0.09301252 22.59155273 0.11352539 C22.26155273 1.43352539 21.93155273 2.75352539 21.59155273 4.11352539 C13.67155273 4.11352539 5.75155273 4.11352539 -2.40844727 4.11352539 C-2.73844727 3.12352539 -3.06844727 2.13352539 -3.40844727 1.11352539 C-2.40844727 0.11352539 -2.40844727 0.11352539 0 0 Z " fill="#36C3A6" transform="translate(218.408447265625,248.886474609375)"/>
<path d="M0 0 C0 0.66 0 1.32 0 2 C-1.6232687 2.6708712 -3.24867578 3.33657029 -4.875 4 C-5.77992188 4.37125 -6.68484375 4.7425 -7.6171875 5.125 C-10 6 -10 6 -12 6 C-12 6.66 -12 7.32 -12 8 C-13.2375 8.12375 -13.2375 8.12375 -14.5 8.25 C-20.74968946 9.56264315 -20.74968946 9.56264315 -26 13 C-26.98470977 16.35433221 -27.10628161 19.51927717 -27 23 C-26.2575 22.649375 -25.515 22.29875 -24.75 21.9375 C-21.78877125 20.9279902 -20.87937439 21.12019116 -18 22 C-19.26691507 22.67408308 -20.53870749 23.33900497 -21.8125 24 C-22.52019531 24.37125 -23.22789062 24.7425 -23.95703125 25.125 C-26 26 -26 26 -29 26 C-29 21.05 -29 16.1 -29 11 C-25.19269962 9.4301894 -21.3846262 7.86252138 -17.57421875 6.30029297 C-16.27780317 5.76802214 -14.98190106 5.23449895 -13.68652344 4.69970703 C-11.82622051 3.93194036 -9.96391837 3.16902341 -8.1015625 2.40625 C-6.42054443 1.71499023 -6.42054443 1.71499023 -4.70556641 1.00976562 C-2 0 -2 0 0 0 Z " fill="#042E2F" transform="translate(240,198)"/>
<path d="M0 0 C4.99043921 0.62089446 9.20727748 2.09501039 13.8125 4 C14.49248047 4.27328125 15.17246094 4.5465625 15.87304688 4.828125 C20.85446429 6.85446429 20.85446429 6.85446429 22 8 C22.07313567 10.53049402 22.09247527 13.03304837 22.0625 15.5625 C22.05798828 16.27341797 22.05347656 16.98433594 22.04882812 17.71679688 C22.03700864 19.47790013 22.01907263 21.23896036 22 23 C15.2813095 21.00386732 9.19265192 18.2708579 3 15 C3 14.67 3 14.34 3 14 C7.54831461 13.59495529 10.31868008 14.89336971 14.3125 17 C15.38113281 17.556875 16.44976562 18.11375 17.55078125 18.6875 C18.76314453 19.3371875 18.76314453 19.3371875 20 20 C20.33 17.03 20.66 14.06 21 11 C19.35 11 17.7 11 16 11 C16 9.68 16 8.36 16 7 C11.545 6.01 11.545 6.01 7 5 C7 4.34 7 3.68 7 3 C6.030625 2.87625 5.06125 2.7525 4.0625 2.625 C3.051875 2.41875 2.04125 2.2125 1 2 C0.67 1.34 0.34 0.68 0 0 Z " fill="#052B17" transform="translate(120,201)"/>
<path d="M0 0 C11.76677699 4.92907509 23.24213144 10.43520204 34.70581055 16.02392578 C41.08977327 19.13324136 47.48721619 22.16866033 54 25 C50.50785639 26.00798036 49.05490068 25.91145375 45.75 24.3125 C45.04359375 23.97863281 44.3371875 23.64476562 43.609375 23.30078125 C42.13876875 22.56767963 40.66882114 21.83324192 39.20117188 21.09423828 C34.50263627 18.73234001 29.76823357 16.46731046 25 14.25 C16.58916893 10.31849322 8.28354416 6.19194159 0 2 C0 1.34 0 0.68 0 0 Z " fill="#033214" transform="translate(83,201)"/>
<path d="M0 0 C0.88945312 0.25265625 1.77890625 0.5053125 2.6953125 0.765625 C3.41460937 1.09046875 4.13390625 1.4153125 4.875 1.75 C7.97942824 11.06328472 4.81473913 21.44387058 2.875 30.75 C2.215 30.42 1.555 30.09 0.875 29.75 C1.0915625 28.15671875 1.0915625 28.15671875 1.3125 26.53125 C1.50026946 25.1042021 1.68775419 23.67711671 1.875 22.25 C1.97039062 21.55390625 2.06578125 20.8578125 2.1640625 20.140625 C3.57424918 11.37571899 3.57424918 11.37571899 1.375 3.1875 C-1.81123639 1.35541408 -3.73648921 1.48029539 -7.2890625 2.140625 C-9.29872593 2.67097202 -9.29872593 2.67097202 -11.0625 4.5 C-12.20674212 6.92310095 -12.75710249 9.10113796 -13.125 11.75 C-13.455 11.75 -13.785 11.75 -14.125 11.75 C-14.21412219 7.91774573 -14.00367729 4.48437848 -13.125 0.75 C-12.361875 0.605625 -11.59875 0.46125 -10.8125 0.3125 C-3.84974241 -1.14482136 -3.84974241 -1.14482136 0 0 Z " fill="#07323B" transform="translate(189.125,132.25)"/>
<path d="M0 0 C0.33 0 0.66 0 1 0 C0.38523131 5.88851258 -0.38155795 11.70743255 -1.375 17.54296875 C-1.56908447 18.70110832 -1.56908447 18.70110832 -1.76708984 19.88264465 C-2.17574625 22.31799223 -2.58779797 24.75275032 -3 27.1875 C-3.27626965 28.8300398 -3.5523131 30.47261765 -3.828125 32.11523438 C-4.33454053 35.12938802 -4.84224896 38.14331715 -5.3515625 41.15698242 C-5.90506074 44.43733477 -6.45449903 47.71830991 -7 51 C-9.57288262 47.22258432 -8.94426475 43.79124181 -8.3125 39.5 C-8.16748047 38.432052 -8.16748047 38.432052 -8.01953125 37.3425293 C-7.26727787 32.10790364 -6.10842973 27.05360048 -4.72265625 21.94921875 C-3.6760128 17.67778197 -3.1006214 13.36472263 -2.52734375 9.0078125 C-1.97595434 5.86285066 -1.07938961 3.00079269 0 0 Z " fill="#04312C" transform="translate(184,167)"/>
<path d="M0 0 C0.99 0 1.98 0 3 0 C3 6.93 3 13.86 3 21 C-3 24 -3 24 -6.375 23.1875 C-7.24125 22.795625 -8.1075 22.40375 -9 22 C-5.93882432 19.37613513 -5.26826873 19 -1 19 C-0.67 12.73 -0.34 6.46 0 0 Z " fill="#28AFDD" transform="translate(273,178)"/>
<path d="M0 0 C0.928125 0.20625 1.85625 0.4125 2.8125 0.625 C3.1425 2.935 3.4725 5.245 3.8125 7.625 C2.0625 9.1875 2.0625 9.1875 -0.1875 10.625 C-3.19138632 10.35995121 -4.02054275 9.79195725 -6.1875 7.625 C-6.5 4.625 -6.5 4.625 -6.1875 1.625 C-3.1875 -0.375 -3.1875 -0.375 0 0 Z " fill="#30D488" transform="translate(128.1875,242.375)"/>
<path d="M0 0 C0.33 0 0.66 0 1 0 C1.42511001 10.21838503 0.33378839 19.08139933 -2 29 C-2.99 29 -3.98 29 -5 29 C-5.33482399 22.86156016 -4.66945451 17.15757019 -3.625 11.125 C-3.49891357 10.37549072 -3.37282715 9.62598145 -3.24291992 8.85375977 C-2.60342828 5.32678184 -2.01311785 3.01967678 0 0 Z " fill="#2BC8BD" transform="translate(175,152)"/>
<path d="M0 0 C0 4.95 0 9.9 0 15 C-1.98 15.66 -3.96 16.32 -6 17 C-6 16.34 -6 15.68 -6 15 C-4.35 14.67 -2.7 14.34 -1 14 C-1 11.03 -1 8.06 -1 5 C-3.31 4.67 -5.62 4.34 -8 4 C-8.33 4.99 -8.66 5.98 -9 7 C-9.99 7.12375 -9.99 7.12375 -11 7.25 C-13.71067897 7.92766974 -15.56608261 8.75795716 -18 10.0625 C-21.15211072 11.71616415 -23.37439036 12.4532012 -27 12 C-23.57131086 8.57131086 -18.96874013 6.9426203 -14.625 4.875 C-13.6659375 4.40707031 -12.706875 3.93914062 -11.71875 3.45703125 C-10.79320312 3.01488281 -9.86765625 2.57273438 -8.9140625 2.1171875 C-7.6448999 1.50786377 -7.6448999 1.50786377 -6.35009766 0.88623047 C-4 0 -4 0 0 0 Z " fill="#04312A" transform="translate(142,153)"/>
<path d="M0 0 C1.32 0 2.64 0 4 0 C3.484375 2.2890625 3.484375 2.2890625 2 5 C-0.64239047 6.39229094 -2.96116017 7.41040128 -5.75 8.375 C-6.45382813 8.64699219 -7.15765625 8.91898438 -7.8828125 9.19921875 C-12.29787783 10.79947477 -15.32935604 11.24844257 -20 10 C-18.45327113 6.90654225 -15.97736005 6.59803066 -12.8125 5.375 C-11.12060547 4.70597656 -11.12060547 4.70597656 -9.39453125 4.0234375 C-6.05280217 3.01591964 -3.46378464 2.80026735 0 3 C0 2.01 0 1.02 0 0 Z " fill="#2CB8CD" transform="translate(254,187)"/>
<path d="M0 0 C6.6521197 3.26558603 6.6521197 3.26558603 8.125 6.375 C7.950506 10.03937396 7.16250099 12.02656114 5 15 C1.3125 15.875 1.3125 15.875 -2 16 C-2 15.34 -2 14.68 -2 14 C-2.61875 13.938125 -3.2375 13.87625 -3.875 13.8125 C-6 13 -6 13 -7.5 10.8125 C-8 8 -8 8 -6.125 4.6875 C-5.42375 3.800625 -4.7225 2.91375 -4 2 C-3.01 2.33 -2.02 2.66 -1 3 C-1.66 3 -2.32 3 -3 3 C-3.33 4.65 -3.66 6.3 -4 8 C-4.66 8 -5.32 8 -6 8 C-4.36526484 11.12474627 -4.36526484 11.12474627 -1.875 11.6875 C-0.946875 11.8421875 -0.946875 11.8421875 0 12 C0 12.66 0 13.32 0 14 C1.32 13.67 2.64 13.34 4 13 C4 11.68 4 10.36 4 9 C4.66 9 5.32 9 6 9 C6 7.68 6 6.36 6 5 C4.35 5 2.7 5 1 5 C0.67 3.35 0.34 1.7 0 0 Z " fill="#072814" transform="translate(65,172)"/>
<path d="M0 0 C0.33 0 0.66 0 1 0 C1.19448477 2.12437212 1.38038289 4.24953191 1.5625 6.375 C1.66691406 7.55835938 1.77132812 8.74171875 1.87890625 9.9609375 C2 13 2 13 1 15 C0.7724985 16.87056791 0.59037189 18.74685958 0.4375 20.625 C0.31181641 22.12933594 0.31181641 22.12933594 0.18359375 23.6640625 C0.12300781 24.43492187 0.06242188 25.20578125 0 26 C-0.99 26.33 -1.98 26.66 -3 27 C-3 29.64 -3 32.28 -3 35 C-5 33 -5 33 -5.04907227 30.80932617 C-4.29633079 23.91386563 -3.2359146 17.12573563 -1.9375 10.3125 C-1.75123047 9.31283203 -1.56496094 8.31316406 -1.37304688 7.28320312 C-0.91986013 4.85458699 -0.46213408 2.42692649 0 0 Z " fill="#0B322D" transform="translate(178,149)"/>
<path d="M0 0 C1.32 0 2.64 0 4 0 C4 0.66 4 1.32 4 2 C5.65 2 7.3 2 9 2 C9 3.32 9 4.64 9 6 C8.34 6 7.68 6 7 6 C7 7.32 7 8.64 7 10 C5.68 10.33 4.36 10.66 3 11 C2.67 10.34 2.34 9.68 2 9 C0.68 9 -0.64 9 -2 9 C-2.33 7.68 -2.66 6.36 -3 5 C-2.34 4.67 -1.68 4.34 -1 4 C-0.34786708 1.97536745 -0.34786708 1.97536745 0 0 Z " fill="#4CBE89" transform="translate(62,175)"/>
<path d="M0 0 C3.48670834 1.1094072 6.77484237 2.26337666 10 4 C10 5.32 10 6.64 10 8 C3.6 12.06153846 3.6 12.06153846 0.5625 11.75 C0.046875 11.5025 -0.46875 11.255 -1 11 C-0.67 10.01 -0.34 9.02 0 8 C2.0625 7.3125 2.0625 7.3125 4 7 C4 6.34 4 5.68 4 5 C1.525 4.01 1.525 4.01 -1 3 C-0.67 2.01 -0.34 1.02 0 0 Z " fill="#26A3D4" transform="translate(224,110)"/>
<path d="M0 0 C1.5625 3.125 1.5625 3.125 2 6 C1.01 6.495 1.01 6.495 0 7 C-0.37125 7.845625 -0.7425 8.69125 -1.125 9.5625 C-3 12 -3 12 -4.90234375 12.3984375 C-7.0625 12.4375 -7.0625 12.4375 -11 12 C-13.40346379 9.59653621 -13.32083747 8.86099805 -13.375 5.5625 C-13.28399187 2.59276117 -13.21570355 1.32824454 -11.5625 -1.1875 C-7.48561121 -2.48017205 -3.84428597 -1.82810468 0 0 Z M-12 2 C-12.4071827 5.18959781 -12.51483719 7.16000247 -10.8125 9.9375 C-8.97979862 11.24211502 -8.97979862 11.24211502 -6.4375 10.8125 C-3.85558728 10.15372967 -3.85558728 10.15372967 -2 8 C-2.32326553 4.40320934 -2.32326553 4.40320934 -3 1 C-7.74076549 -0.18698001 -7.74076549 -0.18698001 -12 2 Z " fill="#042A10" transform="translate(134,242)"/>
<path d="M0 0 C1.89213369 2.38573379 3.02391783 4.07175348 4 7 C3.74633789 9.0847168 3.74633789 9.0847168 3.22265625 11.44921875 C3.03896484 12.29677734 2.85527344 13.14433594 2.66601562 14.01757812 C2.46685547 14.89865234 2.26769531 15.77972656 2.0625 16.6875 C1.86720703 17.58017578 1.67191406 18.47285156 1.47070312 19.39257812 C0.98744798 21.59669306 0.49697166 23.7989445 0 26 C-0.33 26 -0.66 26 -1 26 C-3.19632496 17.21470018 -1.49635196 8.76434718 0 0 Z " fill="#33C99B" transform="translate(163,211)"/>
<path d="M0 0 C-1.32 0.33 -2.64 0.66 -4 1 C-4 1.66 -4 2.32 -4 3 C-5.74802146 3.81674796 -7.49850189 4.62823451 -9.25 5.4375 C-10.71179688 6.11619141 -10.71179688 6.11619141 -12.203125 6.80859375 C-14.49251695 7.78382356 -16.57378746 8.4974274 -19 9 C-19.66 7.68 -20.32 6.36 -21 5 C-6.37175793 -2.12391931 -6.37175793 -2.12391931 0 0 Z " fill="#27D994" transform="translate(116,181)"/>
<path d="M0 0 C0.08685287 3.29150125 0.14033895 6.5827096 0.1875 9.875 C0.22520508 11.28072266 0.22520508 11.28072266 0.26367188 12.71484375 C0.27333984 13.61074219 0.28300781 14.50664062 0.29296875 15.4296875 C0.3086792 16.25710449 0.32438965 17.08452148 0.34057617 17.93701172 C0.22818604 18.61779785 0.1157959 19.29858398 0 20 C-0.99 20.66 -1.98 21.32 -3 22 C-3.99 21.67 -4.98 21.34 -6 21 C-5.34 20.67 -4.68 20.34 -4 20 C-3.68758545 17.28553021 -3.48663408 14.66090639 -3.375 11.9375 C-3.33632812 11.17888672 -3.29765625 10.42027344 -3.2578125 9.63867188 C-3.16326438 7.75952805 -3.08053244 5.87979664 -3 4 C-3.66 3.67 -4.32 3.34 -5 3 C-5 2.34 -5 1.68 -5 1 C-3 0 -3 0 0 0 Z " fill="#1ACDA9" transform="translate(145,149)"/>
<path d="M0 0 C2.46904656 2.46904656 1.18551046 9.0564538 1.1875 12.375 C1.19974609 13.44234375 1.21199219 14.5096875 1.22460938 15.609375 C1.22750977 17.14464844 1.22750977 17.14464844 1.23046875 18.7109375 C1.23457764 19.65243652 1.23868652 20.59393555 1.24291992 21.56396484 C1 24 1 24 -1 27 C-4.125 27.1875 -4.125 27.1875 -7 27 C-4 25 -4 25 -2 24 C-1.67 16.41 -1.34 8.82 -1 1 C-2.98 1.33 -4.96 1.66 -7 2 C-7 1.34 -7 0.68 -7 0 C-3.86350275 -1.04549908 -3.0051095 -1.00170317 0 0 Z " fill="#05181B" transform="translate(147,146)"/>
<path d="M0 0 C-2.27462801 2.27462801 -4.23394178 3.14215813 -7.1640625 4.4609375 C-8.20433594 4.93273437 -9.24460937 5.40453125 -10.31640625 5.890625 C-11.95416016 6.62539062 -11.95416016 6.62539062 -13.625 7.375 C-15.76361589 8.33982792 -17.90164893 9.30594895 -20.0390625 10.2734375 C-21.06032227 10.73331055 -22.08158203 11.19318359 -23.13378906 11.66699219 C-25.66510973 12.84425035 -28.12248673 14.10285277 -30.5859375 15.4140625 C-34 17 -34 17 -37 16 C-34.71070947 14.82845707 -32.41881638 13.66261926 -30.125 12.5 C-29.47402344 12.16613281 -28.82304688 11.83226562 -28.15234375 11.48828125 C-23.2265625 9 -23.2265625 9 -21 9 C-21 8.01 -21 7.02 -21 6 C-19.0509375 5.6596875 -19.0509375 5.6596875 -17.0625 5.3125 C-12.44223968 4.31983744 -8.91120808 2.44888686 -4.9453125 -0.07421875 C-3 -1 -3 -1 0 0 Z " fill="#032B18" transform="translate(115,160)"/>
<path d="M0 0 C2.475 0.99 2.475 0.99 5 2 C5 2.66 5 3.32 5 4 C3.02 4.99 3.02 4.99 1 6 C1 6.66 1 7.32 1 8 C4.54971796 7.39147692 7.76693609 6.61653196 11 5 C11.33 4.01 11.66 3.02 12 2 C12.66 3.65 13.32 5.3 14 7 C12.88625 7.28875 11.7725 7.5775 10.625 7.875 C6.99708908 8.69241329 6.99708908 8.69241329 5 11 C1.375 11.125 1.375 11.125 -2 11 C-2.24042276 6.91281305 -1.42258812 3.82320557 0 0 Z " fill="#0E202E" transform="translate(223,113)"/>
<path d="M0 0 C0 7.59 0 15.18 0 23 C-0.66 22.67 -1.32 22.34 -2 22 C-1.67 15.4 -1.34 8.8 -1 2 C-3.87670594 3.82886724 -3.87670594 3.82886724 -5.8125 5.5625 C-8.51100283 7.33580186 -10.82167514 7.63882672 -14 8 C-12.627162 4.63159336 -11.40170355 3.3079798 -8.125 1.75 C-7.44695312 1.41484375 -6.76890625 1.0796875 -6.0703125 0.734375 C-4 0 -4 0 0 0 Z " fill="#39D1B7" transform="translate(146,147)"/>
<path d="M0 0 C0.66 0 1.32 0 2 0 C2 7.92 2 15.84 2 24 C-2.40800359 23.11839928 -5.25969242 22.38019573 -9 20 C-9.875 17.3125 -9.875 17.3125 -10 15 C-8.02 15.66 -6.04 16.32 -4 17 C-4 17.99 -4 18.98 -4 20 C-2.35 20.33 -0.7 20.66 1 21 C0.67 14.07 0.34 7.14 0 0 Z " fill="#3BCF98" transform="translate(144,206)"/>
<path d="M0 0 C1.65 0 3.3 0 5 0 C4.34 5.61 3.68 11.22 3 17 C2.34 17 1.68 17 1 17 C1 15.35 1 13.7 1 12 C0.01 12 -0.98 12 -2 12 C-2.33 12.66 -2.66 13.32 -3 14 C-2.6875 12.0625 -2.6875 12.0625 -2 10 C-1.01 9.67 -0.02 9.34 1 9 C0.67 6.03 0.34 3.06 0 0 Z " fill="#221E1F" transform="translate(183,138)"/>
<path d="M0 0 C0.99 0.33 1.98 0.66 3 1 C3 6.61 3 12.22 3 18 C2.67 18 2.34 18 2 18 C1.67 14.7 1.34 11.4 1 8 C0.67 12.62 0.34 17.24 0 22 C1.32 22.33 2.64 22.66 4 23 C2.0625 23.5625 2.0625 23.5625 0 24 C-1.65394117 22.34605883 -1.12999683 20.39684587 -1.1328125 18.125 C-1.13410156 17.14015625 -1.13539063 16.1553125 -1.13671875 15.140625 C-1.13285156 14.10421875 -1.12898437 13.0678125 -1.125 12 C-1.13080078 10.44539062 -1.13080078 10.44539062 -1.13671875 8.859375 C-1.13542969 7.87453125 -1.13414062 6.8896875 -1.1328125 5.875 C-1.13168457 4.96492187 -1.13055664 4.05484375 -1.12939453 3.1171875 C-1 1 -1 1 0 0 Z " fill="#42BEAC" transform="translate(208,206)"/>
<path d="M0 0 C2.16640101 4.33280201 2.32792136 6.71681035 2.375 11.5 C2.40335937 12.8096875 2.43171875 14.119375 2.4609375 15.46875 C2 19 2 19 0.2421875 21.359375 C-3.02862448 23.75265206 -6.16318162 24.72106054 -10 26 C-10.66 25.34 -11.32 24.68 -12 24 C-10.56570999 23.32645501 -9.12742943 22.66140299 -7.6875 22 C-6.48673828 21.443125 -6.48673828 21.443125 -5.26171875 20.875 C-3 20 -3 20 0 20 C0 13.4 0 6.8 0 0 Z " fill="#071D2C" transform="translate(276,179)"/>
<path d="M0 0 C0.66 0.33 1.32 0.66 2 1 C1.67 2.65 1.34 4.3 1 6 C-0.32 5.67 -1.64 5.34 -3 5 C-3.33 5.99 -3.66 6.98 -4 8 C-4.99 8 -5.98 8 -7 8 C-6.071875 8.309375 -5.14375 8.61875 -4.1875 8.9375 C-2.125 9.625 -0.0625 10.3125 2 11 C1.34 11 0.68 11 0 11 C-0.33 11.66 -0.66 12.32 -1 13 C-4.34373475 12.44271087 -7.03312999 11.64826111 -10 10 C-10 8.35 -10 6.7 -10 5 C-8.72125 4.9175 -7.4425 4.835 -6.125 4.75 C-3.94666582 4.54130069 -3.94666582 4.54130069 -2 4 C-0.4100567 2.07935207 -0.4100567 2.07935207 0 0 Z " fill="#1B1C18" transform="translate(93,185)"/>
<path d="M0 0 C0 0.66 0 1.32 0 2 C-3.72696109 4.7302973 -7.33139884 5.73696339 -11.8125 6.6875 C-12.97394531 6.93886719 -14.13539062 7.19023437 -15.33203125 7.44921875 C-16.21246094 7.63097656 -17.09289062 7.81273437 -18 8 C-18 8.66 -18 9.32 -18 10 C-21.3 10.33 -24.6 10.66 -28 11 C-23.63204607 8.08803072 -18.84830453 6.35389981 -14 4.375 C-12.4840625 3.74464844 -12.4840625 3.74464844 -10.9375 3.1015625 C-9.968125 2.70453125 -8.99875 2.3075 -8 1.8984375 C-7.113125 1.53411621 -6.22625 1.16979492 -5.3125 0.79443359 C-3 0 -3 0 0 0 Z " fill="#083326" transform="translate(140,173)"/>
<path d="M0 0 C0.33 0 0.66 0 1 0 C1 4.29 1 8.58 1 13 C5.455 12.505 5.455 12.505 10 12 C9 15 9 15 7.3125 16.1875 C4.45876419 17.19016393 2.00579081 17.05345456 -1 17 C-1.02699725 14.72923158 -1.04639453 12.45837179 -1.0625 10.1875 C-1.07990234 8.29064453 -1.07990234 8.29064453 -1.09765625 6.35546875 C-1 3 -1 3 0 0 Z " fill="#28D3BA" transform="translate(209,211)"/>
<path d="M0 0 C2.31 0 4.62 0 7 0 C7 0.66 7 1.32 7 2 C6.01 2.33 5.02 2.66 4 3 C3.67 4.65 3.34 6.3 3 8 C4.65 8 6.3 8 8 8 C8.33 8.66 8.66 9.32 9 10 C6.36 10.33 3.72 10.66 1 11 C-1.30441554 7.54337669 -1.25860135 6.05142119 -1 2 C-0.67 1.34 -0.34 0.68 0 0 Z " fill="#21A3D3" transform="translate(289,181)"/>
<path d="M0 0 C5.92429044 1.73539821 11.3358988 4.44551609 16.875 7.125 C17.84953125 7.59292969 18.8240625 8.06085938 19.828125 8.54296875 C22.22029499 9.69214845 24.61084316 10.84457243 27 12 C23.20961574 13.26346142 20.89502364 12.80586696 17 12 C14.47507139 10.7375357 12.56291911 9.6118686 10.65234375 7.53515625 C8.68060592 5.70325798 6.7875759 4.85274929 4.3125 3.8125 C3.50425781 3.46832031 2.69601563 3.12414062 1.86328125 2.76953125 C1.24839844 2.51558594 0.63351563 2.26164063 0 2 C0 1.34 0 0.68 0 0 Z " fill="#0B2432" transform="translate(236,164)"/>
<path d="M0 0 C4.29 0 8.58 0 13 0 C13.33 1.32 13.66 2.64 14 4 C9.38 4 4.76 4 0 4 C0 2.68 0 1.36 0 0 Z " fill="#38BBAB" transform="translate(234,243)"/>
<path d="M0 0 C0.33 0 0.66 0 1 0 C1.33 4.95 1.66 9.9 2 15 C2.33 11.04 2.66 7.08 3 3 C3.33 3 3.66 3 4 3 C4.04898438 3.96421875 4.09796875 4.9284375 4.1484375 5.921875 C4.22320312 7.18515625 4.29796875 8.4484375 4.375 9.75 C4.44460937 11.00296875 4.51421875 12.2559375 4.5859375 13.546875 C4.95323304 16.60998121 5.39711286 18.41974266 7 21 C6.34 21.33 5.68 21.66 5 22 C2.525 21.01 2.525 21.01 0 20 C0 13.4 0 6.8 0 0 Z " fill="#3CC587" transform="translate(77,179)"/>
<path d="M0 0 C0.66 0.33 1.32 0.66 2 1 C1.33182164 6.70870833 0.46165521 12.34509513 -0.5625 18 C-0.70107422 18.77472656 -0.83964844 19.54945313 -0.98242188 20.34765625 C-1.31976121 22.23210355 -1.65961365 24.1161007 -2 26 C-2.33 26 -2.66 26 -3 26 C-3.35910622 7.60578117 -3.35910622 7.60578117 0 0 Z " fill="#092D36" transform="translate(188,139)"/>
<path d="M0 0 C0.33 0 0.66 0 1 0 C1.33 7.59 1.66 15.18 2 23 C5.4120992 22.1469752 8.67485327 21.13357275 12 20 C12 20.66 12 21.32 12 22 C7.77050005 24.41685712 4.87664009 25.34833144 0 25 C-1.0162256 19.39194023 -0.96017114 14.23502748 -0.5625 8.5625 C-0.51029297 7.73556641 -0.45808594 6.90863281 -0.40429688 6.05664062 C-0.27590237 4.03734522 -0.13884576 2.01860371 0 0 Z " fill="#02281E" transform="translate(206,206)"/>
<path d="M0 0 C5.73913043 0.91304348 5.73913043 0.91304348 8.0625 1.6875 C10.78782659 2.1270688 12.49415865 1.06498257 15 0 C16.32 0 17.64 0 19 0 C19 0.99 19 1.98 19 3 C17.02 3.99 17.02 3.99 15 5 C15 5.66 15 6.32 15 7 C9.57903298 5.64475824 4.9221313 3.63365987 0 1 C0 0.67 0 0.34 0 0 Z " fill="#0F2430" transform="translate(253,167)"/>
<path d="M0 0 C0.99 0.33 1.98 0.66 3 1 C3 7.27 3 13.54 3 20 C1.35 20 -0.3 20 -2 20 C-2.33 19.01 -2.66 18.02 -3 17 C-1.68 17.33 -0.36 17.66 1 18 C0.67 12.06 0.34 6.12 0 0 Z " fill="#1BE79E" transform="translate(142,207)"/>
<path d="M0 0 C0.66 0 1.32 0 2 0 C2.27501507 6.19643329 1.22632202 11.87632056 0 17.9375 C-0.28617188 19.3925293 -0.28617188 19.3925293 -0.578125 20.87695312 C-1.04621915 23.25253095 -1.52030902 25.62674165 -2 28 C-2.33 28 -2.66 28 -3 28 C-3.15856416 21.45262159 -2.61020183 15.38367188 -1.5 8.9375 C-1.35691406 8.07189453 -1.21382812 7.20628906 -1.06640625 6.31445312 C-0.71736324 4.2085603 -0.35960461 2.10411505 0 0 Z " fill="#072B31" transform="translate(173,144)"/>
<path d="M0 0 C0.33 0 0.66 0 1 0 C1.09075133 5.62658248 0.87627451 11.0516667 0.21875 16.640625 C-0.00991267 19.10691527 -0.03511235 21.52457936 0 24 C-1.98 24.99 -1.98 24.99 -4 26 C-3.20948639 20.34360652 -2.33397321 14.70298932 -1.4375 9.0625 C-1.29892578 8.18787109 -1.16035156 7.31324219 -1.01757812 6.41210938 C-0.67885739 4.27466474 -0.33949468 2.13732185 0 0 Z " fill="#09372B" transform="translate(182,205)"/>
<path d="M0 0 C0.309375 0.639375 0.61875 1.27875 0.9375 1.9375 C1.8345163 3.93610821 1.8345163 3.93610821 3 5 C3.33228375 10.42730132 2.4516516 14.82849117 1 20 C0.67 20 0.34 20 0 20 C-1.70137504 13.40717171 -1.35911051 6.62566373 0 0 Z " fill="#32D2A6" transform="translate(177,212)"/>
<path d="M0 0 C0.66 1.32 1.32 2.64 2 4 C-3.445 6.475 -3.445 6.475 -9 9 C-9 8.34 -9 7.68 -9 7 C-9.99 6.67 -10.98 6.34 -12 6 C-8.04 4.02 -4.08 2.04 0 0 Z " fill="#32CAA9" transform="translate(132,152)"/>
<path d="M0 0 C0.33 0.66 0.66 1.32 1 2 C0.0625 4.5 0.0625 4.5 -2 7 C-4.6722329 8.03627929 -7.15550458 8.4870582 -10 9 C-10.66 7.02 -11.32 5.04 -12 3 C-8.33333333 3 -4.66666667 3 -1 3 C-0.67 2.01 -0.34 1.02 0 0 Z " fill="#10242E" transform="translate(300,189)"/>
<path d="M0 0 C-1 3 -1 3 -2.7421875 4.203125 C-3.44601563 4.54859375 -4.14984375 4.8940625 -4.875 5.25 C-5.57367188 5.60578125 -6.27234375 5.9615625 -6.9921875 6.328125 C-9 7 -9 7 -12 6 C-12 5.01 -12 4.02 -12 3 C-7.77050005 0.58314288 -4.87664009 -0.34833144 0 0 Z " fill="#29D8A7" transform="translate(123,159)"/>
<path d="M0 0 C0.61488281 0.08378906 1.22976562 0.16757813 1.86328125 0.25390625 C3.07564453 0.40666016 3.07564453 0.40666016 4.3125 0.5625 C5.11300781 0.66691406 5.91351563 0.77132812 6.73828125 0.87890625 C9.16817116 1.14755178 9.16817116 1.14755178 12 0 C12.28875 0.78375 12.5775 1.5675 12.875 2.375 C13.84912254 5.09671632 13.84912254 5.09671632 16 7 C15.01 8.485 15.01 8.485 14 10 C13.67 9.01 13.34 8.02 13 7 C10.24960681 5.59973392 10.24960681 5.59973392 7 4.4375 C1.10254545 2.20509091 1.10254545 2.20509091 0 0 Z " fill="#0C1F29" transform="translate(247,180)"/>
<path d="M0 0 C0 0.66 0 1.32 0 2 C-0.75925781 2.40992188 -1.51851562 2.81984375 -2.30078125 3.2421875 C-3.29464844 3.78101563 -4.28851563 4.31984375 -5.3125 4.875 C-6.29863281 5.40867188 -7.28476563 5.94234375 -8.30078125 6.4921875 C-11.09586458 8.00722126 -11.09586458 8.00722126 -14 10 C-16.6875 9.625 -16.6875 9.625 -19 9 C-15.70409309 6.29670689 -12.24386481 4.58099915 -8.375 2.8125 C-7.22773438 2.28269531 -6.08046875 1.75289062 -4.8984375 1.20703125 C-2 0 -2 0 0 0 Z " fill="#093235" transform="translate(237,217)"/>
<path d="M0 0 C3.63 0.33 7.26 0.66 11 1 C10.67 1.99 10.34 2.98 10 4 C9.92026524 5.33525717 9.89228662 6.67412083 9.90234375 8.01171875 C9.90556641 8.76904297 9.90878906 9.52636719 9.91210938 10.30664062 C9.92048828 11.09232422 9.92886719 11.87800781 9.9375 12.6875 C9.94201172 13.48478516 9.94652344 14.28207031 9.95117188 15.10351562 C9.9629415 17.06904257 9.98087652 19.03453085 10 21 C9.34 20.67 8.68 20.34 8 20 C8 15.05 8 10.1 8 5 C5.36 4.01 2.72 3.02 0 2 C0 1.34 0 0.68 0 0 Z " fill="#28C890" transform="translate(133,204)"/>
<path d="M0 0 C0.66 0 1.32 0 2 0 C2 1.32 2 2.64 2 4 C3.65 4 5.3 4 7 4 C6.67 5.32 6.34 6.64 6 8 C3.69 8.33 1.38 8.66 -1 9 C-1.09765625 2.84765625 -1.09765625 2.84765625 -1 1 C-0.67 0.67 -0.34 0.34 0 0 Z " fill="#2C1A1F" transform="translate(134,208)"/>
<path d="M0 0 C0.66 0.66 1.32 1.32 2 2 C-1.28942366 3.33891561 -4.58189109 4.67017703 -7.875 6 C-8.81214844 6.3815625 -9.74929687 6.763125 -10.71484375 7.15625 C-11.61074219 7.5171875 -12.50664063 7.878125 -13.4296875 8.25 C-14.25710449 8.58515625 -15.08452148 8.9203125 -15.93701172 9.265625 C-18 10 -18 10 -20 10 C-19 7 -19 7 -17.14233398 6.0168457 C-16.35157471 5.73929443 -15.56081543 5.46174316 -14.74609375 5.17578125 C-13.89208984 4.86962891 -13.03808594 4.56347656 -12.15820312 4.24804688 C-11.26037109 3.93931641 -10.36253906 3.63058594 -9.4375 3.3125 C-8.53580078 2.99216797 -7.63410156 2.67183594 -6.70507812 2.34179688 C-4.47351113 1.55071228 -2.2386782 0.77068213 0 0 Z " fill="#05301B" transform="translate(115,176)"/>
<path d="M0 0 C-0.33 0.99 -0.66 1.98 -1 3 C-2.85276652 3.74110661 -4.71340536 4.46746558 -6.60546875 5.1015625 C-10.15024285 6.43157562 -13.39592809 8.27672448 -16.703125 10.109375 C-19.36886201 11.14302812 -20.33733219 10.79697948 -23 10 C-19.54466686 8.32705993 -16.08526007 6.66272237 -12.625 5 C-11.14773437 4.28457031 -11.14773437 4.28457031 -9.640625 3.5546875 C-8.22910156 2.87792969 -8.22910156 2.87792969 -6.7890625 2.1875 C-5.91975098 1.76855469 -5.05043945 1.34960938 -4.15478516 0.91796875 C-2 0 -2 0 0 0 Z " fill="#03331D" transform="translate(113,166)"/>
<path d="M0 0 C2.0625 0.4375 2.0625 0.4375 4 1 C4.6875 3.3125 4.6875 3.3125 5 6 C3.5625 7.8125 3.5625 7.8125 2 9 C1.01 8.34 0.02 7.68 -1 7 C-1.25 3.9375 -1.25 3.9375 -1 1 C-0.67 0.67 -0.34 0.34 0 0 Z " fill="#21C571" transform="translate(123,243)"/>
<path d="M0 0 C0.5259375 0.7425 0.5259375 0.7425 1.0625 1.5 C3.92572102 3.71668724 6.45096973 3.06119018 10 3 C12.9375 4 12.9375 4 15 5 C12.25429476 6.86707956 10.94652392 6.99611083 7.5625 6.75 C4.48252466 6.10158414 1.85519587 5.29781631 -1 4 C-0.67 2.68 -0.34 1.36 0 0 Z " fill="#30CE8F" transform="translate(94,186)"/>
<path d="M0 0 C1.8125 1.5 1.8125 1.5 3 3 C-0.47823115 4.15941038 -2.45895578 3.70820884 -6 3 C-6.33 3.99 -6.66 4.98 -7 6 C-7.99 6.33 -8.98 6.66 -10 7 C-9.1875 4.0625 -9.1875 4.0625 -8 1 C-4.99825776 -0.00058075 -3.12414314 -0.31241431 0 0 Z " fill="#2AB1BE" transform="translate(188,133)"/>
<path d="M0 0 C0.78375 0.04125 1.5675 0.0825 2.375 0.125 C1.055 0.455 -0.265 0.785 -1.625 1.125 C-1.295 4.095 -0.965 7.065 -0.625 10.125 C-1.615 10.455 -2.605 10.785 -3.625 11.125 C-4.285 10.795 -4.945 10.465 -5.625 10.125 C-4.66666667 0.22222222 -4.66666667 0.22222222 0 0 Z " fill="#133744" transform="translate(184.625,136.875)"/>
<path d="M0 0 C-3.12488567 2.52394612 -6.31314387 4.39701907 -10 6 C-10.66 5.67 -11.32 5.34 -12 5 C-12 4.01 -12 3.02 -12 2 C-7.52828892 -0.66173278 -5.06604612 -1.3268216 0 0 Z " fill="#35BAD4" transform="translate(268,201)"/>
<path d="M0 0 C1.32 0.33 2.64 0.66 4 1 C3.67 1.66 3.34 2.32 3 3 C2.72488371 6.11361767 2.55331352 9.22687938 2.37890625 12.34765625 C2.25386719 13.22292969 2.12882812 14.09820312 2 15 C1.01 15.495 1.01 15.495 0 16 C0 10.72 0 5.44 0 0 Z " fill="#2BE493" transform="translate(78,179)"/>
<path d="M0 0 C0 1.32 0 2.64 0 4 C-0.66 4 -1.32 4 -2 4 C-2.33 4.99 -2.66 5.98 -3 7 C-3 6.34 -3 5.68 -3 5 C-4.65 4.67 -6.3 4.34 -8 4 C-7.67 3.01 -7.34 2.02 -7 1 C-4.53721199 -0.231394 -2.7204945 -0.07159196 0 0 Z " fill="#288051" transform="translate(71,177)"/>
<path d="M0 0 C0.33 0 0.66 0 1 0 C1.02886984 3.97915159 1.04675406 7.95827653 1.0625 11.9375 C1.07087891 13.07380859 1.07925781 14.21011719 1.08789062 15.38085938 C1.09111328 16.46044922 1.09433594 17.54003906 1.09765625 18.65234375 C1.10289307 19.65257568 1.10812988 20.65280762 1.11352539 21.68334961 C1 24 1 24 0 25 C-1.99958364 25.04080783 -4.00045254 25.04254356 -6 25 C-3 23 -3 23 -1 22 C-0.67 14.74 -0.34 7.48 0 0 Z " fill="#02342F" transform="translate(146,148)"/>
<path d="M0 0 C0.33 0.66 0.66 1.32 1 2 C1.99 2 2.98 2 4 2 C3.38461538 9.50769231 3.38461538 9.50769231 1.4375 12 C0.963125 12.33 0.48875 12.66 0 13 C-1.28571429 4.57142857 -1.28571429 4.57142857 0 0 Z " fill="#2CC6AB" transform="translate(169,179)"/>
<path d="M0 0 C3.48670834 1.1094072 6.77484237 2.26337666 10 4 C10 5.32 10 6.64 10 8 C9.34 8 8.68 8 8 8 C7.67 7.01 7.34 6.02 7 5 C4.69 4.67 2.38 4.34 0 4 C0 2.68 0 1.36 0 0 Z " fill="#3A99C4" transform="translate(224,110)"/>
<path d="M0 0 C0.33 2.31 0.66 4.62 1 7 C2.65 7 4.3 7 6 7 C6 7.33 6 7.66 6 8 C3.69 8.33 1.38 8.66 -1 9 C-1.33 7.02 -1.66 5.04 -2 3 C-2.99 2.67 -3.98 2.34 -5 2 C-2 0 -2 0 0 0 Z " fill="#14343B" transform="translate(123,105)"/>
<path d="M0 0 C0.33 0 0.66 0 1 0 C1.19644384 1.89492746 1.38177288 3.79100903 1.5625 5.6875 C1.66691406 6.74324219 1.77132812 7.79898438 1.87890625 8.88671875 C1.99277552 11.81426086 1.70848415 14.17131144 1 17 C0.67 17 0.34 17 0 17 C-1.37745568 11.49017726 -1.8198497 5.45954909 0 0 Z " fill="#33E1A4" transform="translate(162,220)"/>
<path d="M0 0 C0.33 0.99 0.66 1.98 1 3 C1.66 3 2.32 3 3 3 C3.33 2.01 3.66 1.02 4 0 C3.67 2.97 3.34 5.94 3 9 C1.68 9.33 0.36 9.66 -1 10 C-0.67 6.7 -0.34 3.4 0 0 Z " fill="#282121" transform="translate(169,211)"/>
<path d="M0 0 C3.96 1.32 7.92 2.64 12 4 C12 4.66 12 5.32 12 6 C10.02 6.66 8.04 7.32 6 8 C6.33 6.68 6.66 5.36 7 4 C4.69 3.34 2.38 2.68 0 2 C0 1.34 0 0.68 0 0 Z " fill="#022D3F" transform="translate(240,183)"/>
<path d="M0 0 C5.85659906 1.66153012 11.4590134 3.47041916 17 6 C15.4375 6.6875 15.4375 6.6875 13 7 C10.64903024 6.0421975 8.31648799 5.03842565 6 4 C4.01178687 3.60235737 2.01267638 3.24544834 0 3 C0 2.01 0 1.02 0 0 Z " fill="#032529" transform="translate(211,172)"/>
<path d="M0 0 C0 0.66 0 1.32 0 2 C-10.77792553 8.46675532 -10.77792553 8.46675532 -15.17578125 7.54296875 C-15.77777344 7.36378906 -16.37976563 7.18460938 -17 7 C-14.54379149 5.82866942 -12.08525083 4.66278278 -9.625 3.5 C-8.92632812 3.16613281 -8.22765625 2.83226562 -7.5078125 2.48828125 C-2.2265625 0 -2.2265625 0 0 0 Z " fill="#052C35" transform="translate(254,209)"/>
<path d="M0 0 C1.32 0 2.64 0 4 0 C3.25 2.4375 3.25 2.4375 2 5 C-1.50115191 6.8154121 -5.25950251 5.6473938 -9 5 C-5.5647952 2.70986347 -4.014669 2.82157027 0 3 C0 2.01 0 1.02 0 0 Z " fill="#21B3D4" transform="translate(254,187)"/>
<path d="M0 0 C5.53846154 0.49230769 5.53846154 0.49230769 7.875 3.0625 C8.431875 4.0215625 8.431875 4.0215625 9 5 C8.01 5.495 8.01 5.495 7 6 C6.05125 5.67 5.1025 5.34 4.125 5 C1.04285618 4.01371398 -0.06577811 3.87145312 -3 5 C-2.01 3.35 -1.02 1.7 0 0 Z " fill="#102636" transform="translate(223,107)"/>
<path d="M0 0 C2.97 0 5.94 0 9 0 C9 0.99 9 1.98 9 3 C9.66 3 10.32 3 11 3 C11 3.66 11 4.32 11 5 C6.87248551 4.39301257 3.6678852 2.96189209 0 1 C0 0.67 0 0.34 0 0 Z " fill="#0F313D" transform="translate(238,160)"/>
<path d="M0 0 C-0.33 0.99 -0.66 1.98 -1 3 C-2.98 3.33 -4.96 3.66 -7 4 C-7 2.68 -7 1.36 -7 0 C-4.3333581 -1.33332095 -2.83319697 -0.67102033 0 0 Z " fill="#3EBAAA" transform="translate(120,116)"/>
<path d="M0 0 C1.62723299 0.45034123 3.25173664 0.91055354 4.875 1.375 C5.77992187 1.63023437 6.68484375 1.88546875 7.6171875 2.1484375 C10 3 10 3 12 5 C10.5629191 5.05422947 9.12524538 5.09289723 7.6875 5.125 C6.88699219 5.14820313 6.08648437 5.17140625 5.26171875 5.1953125 C3 5 3 5 0 3 C0 2.01 0 1.02 0 0 Z " fill="#08341C" transform="translate(94,190)"/>
<path d="M0 0 C2.31 0.33 4.62 0.66 7 1 C7.33 2.32 7.66 3.64 8 5 C5.125 4.75 5.125 4.75 2 4 C0.625 1.9375 0.625 1.9375 0 0 Z " fill="#2DACD1" transform="translate(257,171)"/>
<path d="M0 0 C0.33 0 0.66 0 1 0 C0.88590318 2.10478604 0.75834639 4.20884577 0.625 6.3125 C0.52058594 8.07013672 0.52058594 8.07013672 0.4140625 9.86328125 C0 13 0 13 -2 16 C-3.13314263 11.89517207 -2.78328091 9.24049263 -1.5625 5.1875 C-1.27503906 4.21167969 -0.98757812 3.23585937 -0.69140625 2.23046875 C-0.46324219 1.49441406 -0.23507813 0.75835937 0 0 Z " fill="#052A27" transform="translate(193,147)"/>
<path d="M0 0 C3.375 -0.1875 3.375 -0.1875 7 0 C7.66 0.99 8.32 1.98 9 3 C10.65816784 3.68753301 12.32459336 4.35561283 14 5 C14.33 5.66 14.66 6.32 15 7 C9.57903298 5.64475824 4.9221313 3.63365987 0 1 C0 0.67 0 0.34 0 0 Z " fill="#072E3B" transform="translate(211,147)"/>
<path d="M0 0 C-2.06756277 2.7972908 -3.14440371 3.02692273 -6.6875 3.6875 C-7.780625 3.790625 -8.87375 3.89375 -10 4 C-9.67 2.68 -9.34 1.36 -9 0 C-2.25 -1.125 -2.25 -1.125 0 0 Z " fill="#1FCEB3" transform="translate(219,224)"/>
<path d="M0 0 C1.98 0.66 3.96 1.32 6 2 C6 2.33 6 2.66 6 3 C4.35 3 2.7 3 1 3 C1.33 7.29 1.66 11.58 2 16 C1.34 16 0.68 16 0 16 C0 10.72 0 5.44 0 0 Z " fill="#02394D" transform="translate(211,152)"/>
<path d="M0 0 C2.31 0 4.62 0 7 0 C7 0.66 7 1.32 7 2 C5.576875 2.37125 5.576875 2.37125 4.125 2.75 C0.91306809 3.6857077 0.91306809 3.6857077 -0.375 6.125 C-0.58125 6.74375 -0.7875 7.3625 -1 8 C-1.125 2.25 -1.125 2.25 0 0 Z " fill="#28A9D8" transform="translate(289,181)"/>
<path d="M0 0 C0.66 0.99 1.32 1.98 2 3 C-0.59482129 5.59482129 -2.39883625 5.69990302 -6 6 C-6.66 5.34 -7.32 4.68 -8 4 C-5.36 2.68 -2.72 1.36 0 0 Z " fill="#2AC995" transform="translate(110,162)"/>
<path d="M0 0 C1.65 0 3.3 0 5 0 C5.33 1.65 5.66 3.3 6 5 C3.69 4.67 1.38 4.34 -1 4 C-0.67 2.68 -0.34 1.36 0 0 Z " fill="#122023" transform="translate(250,162)"/>
<path d="M0 0 C5.41390868 0.46671627 9.20517932 1.24297811 14 4 C13.67 4.66 13.34 5.32 13 6 C8.71 4.35 4.42 2.7 0 1 C0 0.67 0 0.34 0 0 Z " fill="#033F28" transform="translate(131,200)"/>
<path d="M0 0 C2.60018816 3.90028225 2.15085514 7.47434569 2 12 C1.01 11.67 0.02 11.34 -1 11 C-1.14285714 3.57142857 -1.14285714 3.57142857 0 0 Z " fill="#32CEC7" transform="translate(185,168)"/>
<path d="M0 0 C1.98 0.66 3.96 1.32 6 2 C3.84658021 4.15341979 2.96076291 4.64111965 0 5 C-0.99 4.34 -1.98 3.68 -3 3 C-2.01 2.01 -1.02 1.02 0 0 Z " fill="#2EB3BD" transform="translate(232,196)"/>
<path d="M0 0 C0.33 0 0.66 0 1 0 C1 1.65 1 3.3 1 5 C-2.63423209 7.32590854 -5.77088331 7.16265833 -10 7 C-6.71536341 4.81024227 -3.79303725 4.00193437 0 3 C0 2.01 0 1.02 0 0 Z " fill="#0A303E" transform="translate(260,187)"/>
<path d="M0 0 C1.32 0 2.64 0 4 0 C4.33 1.98 4.66 3.96 5 6 C3.68 6 2.36 6 1 6 C0.67 4.02 0.34 2.04 0 0 Z " fill="#3CBCAF" transform="translate(117,108)"/>
<path d="M0 0 C5.07612318 -0.61528766 7.82982006 1.38341651 12 4 C12 4.66 12 5.32 12 6 C7.76570244 4.68938409 3.92592596 3.05643741 0 1 C0 0.67 0 0.34 0 0 Z " fill="#053A1E" transform="translate(123,215)"/>
<path d="M0 0 C0.8353125 0.556875 0.8353125 0.556875 1.6875 1.125 C-3.9375 4.125 -3.9375 4.125 -7.3125 4.125 C-7.3125 3.135 -7.3125 2.145 -7.3125 1.125 C-2.88173077 -1.09038462 -2.88173077 -1.09038462 0 0 Z " fill="#2BBEAF" transform="translate(217.3125,203.875)"/>
<path d="M0 0 C0.99 0.33 1.98 0.66 3 1 C2.34 1 1.68 1 1 1 C1.33 1.99 1.66 2.98 2 4 C-4.625 7.125 -4.625 7.125 -8 6 C-7.195625 5.731875 -6.39125 5.46375 -5.5625 5.1875 C-4.716875 4.795625 -3.87125 4.40375 -3 4 C-2.67 3.01 -2.34 2.02 -2 1 C-1.34 0.67 -0.68 0.34 0 0 Z " fill="#38CDC5" transform="translate(220,201)"/>
<path d="M0 0 C2.475 0.495 2.475 0.495 5 1 C4.67 2.32 4.34 3.64 4 5 C2.68 5 1.36 5 0 5 C0 3.35 0 1.7 0 0 Z " fill="#052944" transform="translate(292,184)"/>
<path d="M0 0 C2.31 0 4.62 0 7 0 C7 0.66 7 1.32 7 2 C7.99 2 8.98 2 10 2 C10 2.66 10 3.32 10 4 C8.51882199 3.71872579 7.04006751 3.42466268 5.5625 3.125 C4.73878906 2.96257812 3.91507813 2.80015625 3.06640625 2.6328125 C2.38449219 2.42398438 1.70257813 2.21515625 1 2 C0.67 1.34 0.34 0.68 0 0 Z " fill="#2BB8D3" transform="translate(243,183)"/>
<path d="M0 0 C0.66 0.33 1.32 0.66 2 1 C2.33 1.99 2.66 2.98 3 4 C1.68 4.33 0.36 4.66 -1 5 C-1 4.34 -1 3.68 -1 3 C-2.98 3.33 -4.96 3.66 -7 4 C-4.61426621 2.10786631 -2.92824652 0.97608217 0 0 Z " fill="#2FC49D" transform="translate(129,172)"/>
<path d="M0 0 C1.9375 0.3125 1.9375 0.3125 4 1 C4.33 1.99 4.66 2.98 5 4 C2.21176345 5.0326802 1.1322726 5.04509293 -1.75 4.0625 C-2.4925 3.711875 -3.235 3.36125 -4 3 C-2.68 2.67 -1.36 2.34 0 2 C0 1.34 0 0.68 0 0 Z " fill="#28AEBC" transform="translate(217,170)"/>
<path d="M0 0 C1.66666667 0 3.33333333 0 5 0 C5 0.66 5 1.32 5 2 C5.66 2.33 6.32 2.66 7 3 C6.01 3.33 5.02 3.66 4 4 C3.67 3.67 3.34 3.34 3 3 C2.34 4.32 1.68 5.64 1 7 C1 6.01 1 5.02 1 4 C0.01 4 -0.98 4 -2 4 C-2 3.34 -2 2.68 -2 2 C-1.34 2 -0.68 2 0 2 C0 1.34 0 0.68 0 0 Z " fill="#20282D" transform="translate(203,144)"/>
<path d="M0 0 C0 0.99 0 1.98 0 3 C-1.98 3.33 -3.96 3.66 -6 4 C-6.33 3.01 -6.66 2.02 -7 1 C-4.53721199 -0.231394 -2.7204945 -0.07159196 0 0 Z " fill="#48BFB5" transform="translate(129,113)"/>
<path d="M0 0 C0 2 0 2 -1.0625 3.625 C-3.96338818 5.68369484 -6.54480057 5.19557733 -10 5 C-3.63636364 0 -3.63636364 0 0 0 Z " fill="#093741" transform="translate(264,204)"/>
<path d="M0 0 C-0.33 0.66 -0.66 1.32 -1 2 C-3.875 2.75 -3.875 2.75 -7 3 C-7.99 2.34 -8.98 1.68 -10 1 C-6.42181037 -1.33958553 -4.07775191 -0.9267618 0 0 Z " fill="#36BED5" transform="translate(244,195)"/>
<path d="M0 0 C0 1.32 0 2.64 0 4 C-2.31 3.67 -4.62 3.34 -7 3 C-7 2.34 -7 1.68 -7 1 C-4.53721199 -0.231394 -2.7204945 -0.07159196 0 0 Z " fill="#0E2A27" transform="translate(141,154)"/>
<path d="M0 0 C0.66 0.33 1.32 0.66 2 1 C2 3.97 2 6.94 2 10 C1.01 10.33 0.02 10.66 -1 11 C-1.0270043 9.54176788 -1.04639787 8.08339325 -1.0625 6.625 C-1.07410156 5.81289062 -1.08570313 5.00078125 -1.09765625 4.1640625 C-1 2 -1 2 0 0 Z " fill="#1A2016" transform="translate(169,144)"/>
<path d="M0 0 C2.31 0 4.62 0 7 0 C6.21625 0.515625 5.4325 1.03125 4.625 1.5625 C1.44405752 4.5162323 0.88506307 6.81606548 0 11 C-0.33 11 -0.66 11 -1 11 C-1.08912219 7.16774573 -0.87867729 3.73437848 0 0 Z " fill="#082930" transform="translate(176,133)"/>
<path d="M0 0 C1.32 0 2.64 0 4 0 C4.33 0.66 4.66 1.32 5 2 C5.99 2.33 6.98 2.66 8 3 C8 3.66 8 4.32 8 5 C5.69 4.67 3.38 4.34 1 4 C0.67 2.68 0.34 1.36 0 0 Z " fill="#1A1F17" transform="translate(79,201)"/>
<path d="M0 0 C-1 3 -1 3 -2.84765625 3.94921875 C-3.57855469 4.19285156 -4.30945313 4.43648437 -5.0625 4.6875 C-6.16271484 5.06455078 -6.16271484 5.06455078 -7.28515625 5.44921875 C-7.85105469 5.63097656 -8.41695313 5.81273437 -9 6 C-9.66 5.34 -10.32 4.68 -11 4 C-9.5437455 3.32880451 -8.08492133 2.66318193 -6.625 2 C-5.81289063 1.62875 -5.00078125 1.2575 -4.1640625 0.875 C-2 0 -2 0 0 0 Z " fill="#07343F" transform="translate(275,199)"/>
<path d="M0 0 C0 0.66 0 1.32 0 2 C0.66 2.33 1.32 2.66 2 3 C0.02 3.99 0.02 3.99 -2 5 C-3.32 4.01 -4.64 3.02 -6 2 C-2.25 0 -2.25 0 0 0 Z " fill="#2BA5C3" transform="translate(270,197)"/>
<path d="M0 0 C0 0.99 0 1.98 0 3 C0.66 3.33 1.32 3.66 2 4 C0.68 4.33 -0.64 4.66 -2 5 C-2.33 4.34 -2.66 3.68 -3 3 C-5.02463255 2.34786708 -5.02463255 2.34786708 -7 2 C-4 0 -4 0 0 0 Z " fill="#1B1A19" transform="translate(106,195)"/>
<path d="M0 0 C-1.32 0.33 -2.64 0.66 -4 1 C-4 1.66 -4 2.32 -4 3 C-5.65 3.33 -7.3 3.66 -9 4 C-9.33 3.01 -9.66 2.02 -10 1 C-3.375 -1.125 -3.375 -1.125 0 0 Z " fill="#23E09E" transform="translate(116,181)"/>
<path d="M0 0 C1.32 0.33 2.64 0.66 4 1 C4 2.65 4 4.3 4 6 C3.01 6 2.02 6 1 6 C0.67 4.02 0.34 2.04 0 0 Z " fill="#3CCCBF" transform="translate(120,118)"/>
<path d="M0 0 C2.29013653 3.4352048 2.17842973 4.985331 2 9 C1.01 9 0.02 9 -1 9 C-1.09765625 2.84765625 -1.09765625 2.84765625 -1 1 C-0.67 0.67 -0.34 0.34 0 0 Z " fill="#092516" transform="translate(165,228)"/>
<path d="M0 0 C0.33 0 0.66 0 1 0 C1.33 2.31 1.66 4.62 2 7 C1.34 7 0.68 7 0 7 C-0.33 8.32 -0.66 9.64 -1 11 C-1.22174933 9.54364629 -1.42698698 8.08477044 -1.625 6.625 C-1.74101562 5.81289062 -1.85703125 5.00078125 -1.9765625 4.1640625 C-1.98429688 3.44992188 -1.99203125 2.73578125 -2 2 C-1.34 1.34 -0.68 0.68 0 0 Z " fill="#1BCFA1" transform="translate(168,193)"/>
<path d="M0 0 C0.33 0 0.66 0 1 0 C2.28571429 8.42857143 2.28571429 8.42857143 1 13 C0.67 13 0.34 13 0 13 C-1.35064935 4.05194805 -1.35064935 4.05194805 0 0 Z " fill="#28C6A9" transform="translate(182,192)"/>
<path d="M0 0 C4.75 0.75 4.75 0.75 7 3 C4.36 3.33 1.72 3.66 -1 4 C-0.67 2.68 -0.34 1.36 0 0 Z " fill="#0E2A37" transform="translate(229,179)"/>
<path d="M0 0 C1.32 0 2.64 0 4 0 C4 1.65 4 3.3 4 5 C2.02 4.34 0.04 3.68 -2 3 C-1.34 2.67 -0.68 2.34 0 2 C0 1.34 0 0.68 0 0 Z " fill="#2C1C1B" transform="translate(128,164)"/>
<path d="M0 0 C0.99 0 1.98 0 3 0 C2.67 3.3 2.34 6.6 2 10 C0.0044484 6.00889681 -0.19546065 4.30013434 0 0 Z " fill="#2CCDD2" transform="translate(187,158)"/>
<path d="M0 0 C0.66 0 1.32 0 2 0 C2 1.98 2 3.96 2 6 C2.66 6 3.32 6 4 6 C4 6.66 4 7.32 4 8 C2.68 8 1.36 8 0 8 C0 5.36 0 2.72 0 0 Z " fill="#13231B" transform="translate(132,162)"/>
<path d="M0 0 C1.98 0 3.96 0 6 0 C6.66 1.98 7.32 3.96 8 6 C6 6 6 6 4.375 4.625 C3 3 3 3 3 1 C2.01 0.67 1.02 0.34 0 0 Z " fill="#112D1D" transform="translate(128,242)"/>
<path d="M0 0 C2.875 -0.125 2.875 -0.125 6 0 C6.66 0.66 7.32 1.32 8 2 C6.35 2.66 4.7 3.32 3 4 C1.97895449 3.02149805 0.9793879 2.02019573 0 1 C0 0.67 0 0.34 0 0 Z " fill="#27D68A" transform="translate(100,207)"/>
<path d="M0 0 C0.33 0.66 0.66 1.32 1 2 C-0.32 2.33 -1.64 2.66 -3 3 C-2.67 3.99 -2.34 4.98 -2 6 C-3.32 6.33 -4.64 6.66 -6 7 C-6 5.68 -6 4.36 -6 3 C-4.02 2.01 -2.04 1.02 0 0 Z " fill="#39CFA1" transform="translate(117,159)"/>
<path d="M0 0 C-2.05233685 2.2477975 -3.00667261 3.0022242 -6 4 C-6 3.34 -6 2.68 -6 2 C-6.99 1.67 -7.98 1.34 -9 1 C-6.04335481 -0.4783226 -3.25770263 -0.06032783 0 0 Z " fill="#37D1AF" transform="translate(129,157)"/>
<path d="M0 0 C1.98 0 3.96 0 6 0 C6.33 0.99 6.66 1.98 7 3 C7.66 3.33 8.32 3.66 9 4 C4.545 3.01 4.545 3.01 0 2 C0 1.34 0 0.68 0 0 Z " fill="#2D1E20" transform="translate(226,208)"/>
<path d="M0 0 C1.32 0 2.64 0 4 0 C4 0.66 4 1.32 4 2 C4.99 2 5.98 2 7 2 C7.33 2.99 7.66 3.98 8 5 C2.25 3.125 2.25 3.125 0 2 C0 1.34 0 0.68 0 0 Z " fill="#063A1D" transform="translate(108,207)"/>
<path d="M0 0 C1.65 0.33 3.3 0.66 5 1 C5 1.66 5 2.32 5 3 C3.02 3.33 1.04 3.66 -1 4 C-0.67 2.68 -0.34 1.36 0 0 Z " fill="#0C2523" transform="translate(225,195)"/>
<path d="M0 0 C1.65 0.33 3.3 0.66 5 1 C4.01 1.33 3.02 1.66 2 2 C2.33 2.99 2.66 3.98 3 5 C1.02 4.34 -0.96 3.68 -3 3 C-2.01 2.67 -1.02 2.34 0 2 C0 1.34 0 0.68 0 0 Z " fill="#2696BC" transform="translate(255,169)"/>
<path d="M0 0 C2.475 0.99 2.475 0.99 5 2 C5 2.66 5 3.32 5 4 C2 5 2 5 -1 4 C-0.67 2.68 -0.34 1.36 0 0 Z " fill="#0D2B44" transform="translate(223,113)"/>
<path d="M0 0 C1.65 0 3.3 0 5 0 C3.875 2 3.875 2 2 4 C-1.1875 4.25 -1.1875 4.25 -4 4 C-2.68 3.34 -1.36 2.68 0 2 C0 1.34 0 0.68 0 0 Z " fill="#45CA9C" transform="translate(171,239)"/>
<path d="M0 0 C0.33 0 0.66 0 1 0 C1.12375 0.7425 1.2475 1.485 1.375 2.25 C1.95486701 4.80141485 2.73708739 6.7267573 4 9 C3.01 9 2.02 9 1 9 C0 8 0 8 -0.09765625 6.15234375 C-0.06510417 4.1015625 -0.03255208 2.05078125 0 0 Z " fill="#112016" transform="translate(178,231)"/>
<path d="M0 0 C2.6875 0.3125 2.6875 0.3125 5 1 C3.8125 2.5625 3.8125 2.5625 2 4 C-0.6875 3.6875 -0.6875 3.6875 -3 3 C-1.8125 1.4375 -1.8125 1.4375 0 0 Z " fill="#3ACECC" transform="translate(229,216)"/>
<path d="M0 0 C0.99 0.33 1.98 0.66 3 1 C2.34 2.98 1.68 4.96 1 7 C0.34 7 -0.32 7 -1 7 C-1.04254356 5.00045254 -1.04080783 2.99958364 -1 1 C-0.67 0.67 -0.34 0.34 0 0 Z " fill="#2E1A23" transform="translate(149,151)"/>
<path d="M0 0 C1.65 0 3.3 0 5 0 C4.1875 1.9375 4.1875 1.9375 3 4 C2.01 4.33 1.02 4.66 0 5 C0 3.33333333 0 1.66666667 0 0 Z " fill="#1C1C15" transform="translate(178,129)"/>
<path d="M0 0 C0.99 0.33 1.98 0.66 3 1 C2.01 1.495 2.01 1.495 1 2 C1 3.32 1 4.64 1 6 C0.34 6 -0.32 6 -1 6 C-1.33 4.35 -1.66 2.7 -2 1 C-1.34 0.67 -0.68 0.34 0 0 Z " fill="#182118" transform="translate(117,122)"/>
</svg>
